<?xml version="1.0" encoding="UTF-8" standalone="no"?>
<!-- Created with Inkscape (http://www.inkscape.org/) -->

<svg
   viewBox="0 0 99.999992 42.726898"
   version="1.1"
   id="svg1"
   inkscape:version="1.3.2 (091e20e, 2023-11-25)"
   sodipodi:docname="the-dance-thread-logo-dark-2.svg"
   inkscape:export-filename="../../../../Downloads/the-dance-thread-logo-dark-2.png"
   inkscape:export-xdpi="2304.0002"
   inkscape:export-ydpi="2304.0002"
   xmlns:inkscape="http://www.inkscape.org/namespaces/inkscape"
   xmlns:sodipodi="http://sodipodi.sourceforge.net/DTD/sodipodi-0.dtd"
   xmlns="http://www.w3.org/2000/svg"
   xmlns:svg="http://www.w3.org/2000/svg">
  <sodipodi:namedview
     id="namedview1"
     pagecolor="#ffffff"
     bordercolor="#000000"
     borderopacity="0.25"
     inkscape:showpageshadow="2"
     inkscape:pageopacity="0.0"
     inkscape:pagecheckerboard="0"
     inkscape:deskcolor="#d1d1d1"
     inkscape:document-units="mm"
     inkscape:zoom="3.2045224"
     inkscape:cx="39.78752"
     inkscape:cy="40.411638"
     inkscape:window-width="1440"
     inkscape:window-height="776"
     inkscape:window-x="1920"
     inkscape:window-y="205"
     inkscape:window-maximized="0"
     inkscape:current-layer="layer3" />
  <defs
     id="defs1">
    <clipPath
       id="0f89e88793">
      <path
         d="M 50.394531,37.5 H 320.88281 V 307.98828 H 50.394531 Z m 0,0"
         clip-rule="nonzero"
         id="path1-1" />
    </clipPath>
    <clipPath
       id="880e908ddd">
      <path
         d="m 185.64062,37.5 c -74.69531,0 -135.246089,60.550781 -135.246089,135.24219 0,74.69531 60.550779,135.24609 135.246089,135.24609 74.69141,0 135.24219,-60.55078 135.24219,-135.24609 C 320.88281,98.050781 260.33203,37.5 185.64062,37.5 Z m 0,0"
         clip-rule="nonzero"
         id="path2" />
    </clipPath>
    <clipPath
       id="e703e778a8">
      <path
         d="M 50.394531,37.5 H 324.49219 V 311.59375 H 50.394531 Z m 0,0"
         clip-rule="nonzero"
         id="path3-7" />
    </clipPath>
    <clipPath
       id="0f89e88793-7">
      <path
         d="M 50.394531,37.5 H 320.88281 V 307.98828 H 50.394531 Z m 0,0"
         clip-rule="nonzero"
         id="path1-1-8" />
    </clipPath>
    <clipPath
       id="880e908ddd-0">
      <path
         d="m 185.64062,37.5 c -74.69531,0 -135.246089,60.550781 -135.246089,135.24219 0,74.69531 60.550779,135.24609 135.246089,135.24609 74.69141,0 135.24219,-60.55078 135.24219,-135.24609 C 320.88281,98.050781 260.33203,37.5 185.64062,37.5 Z m 0,0"
         clip-rule="nonzero"
         id="path2-6" />
    </clipPath>
    <clipPath
       id="e703e778a8-5">
      <path
         d="M 50.394531,37.5 H 324.49219 V 311.59375 H 50.394531 Z m 0,0"
         clip-rule="nonzero"
         id="path3-7-7" />
    </clipPath>
    <clipPath
       clipPathUnits="userSpaceOnUse"
       id="clipPath5">
      <path
         style="fill:#cb56e6;fill-opacity:1;stroke:none;stroke-width:0.125703;stroke-opacity:1"
         d="m 58.783577,24.170718 c 0.17888,-0.34616 0.508749,-0.19654 0.865899,0.0426 0.31319,0.24348 0.40521,0.48345 0.367541,0.72137 -0.304522,0.736 -0.601461,1.49772 -0.892281,2.28028 l -0.469461,1.25677 c -1.852549,5.250191 -1.73097,5.69272 -2.106588,7.18139 -0.458841,2.221421 -0.592492,4.483031 -0.4157,6.783041 0.0334,0.248999 -0.077,0.3766 -0.516361,0.226158 -0.39891,-0.188169 -0.627219,-0.441 -0.72,-0.745199 -0.103431,-0.905449 -0.0626,-1.805371 -0.0731,-2.707259 0.0723,-1.765081 0.3048,-3.523552 0.71773,-5.274601 0.389448,-1.776201 0.968978,-3.52924 1.56854,-5.27984 l 0.44614,-1.297591 c 0.628719,-1.686779 0.87245,-2.278449 1.227619,-3.187119 z"
         id="path6"
         class="cursive"
         sodipodi:nodetypes="cccccccccccccc"
         inkscape:label="cursive-1-1" />
    </clipPath>
    <clipPath
       clipPathUnits="userSpaceOnUse"
       id="clipPath6">
      <path
         style="display:inline;fill:#cb56e6;fill-opacity:1;stroke:none;stroke-width:0.125703;stroke-opacity:1"
         d="m 49.805397,28.815808 c 2.574078,-0.702771 5.158719,-1.16314 7.750558,-1.457971 1.796021,-0.223509 3.589851,-0.302958 5.381821,-0.260419 1.162651,0.0333 2.299179,0.221819 3.389331,0.68615 0.41065,0.21821 0.625809,0.473109 0.66484,0.76106 -0.0269,0.26869 -0.174302,0.404601 -0.56569,0.27118 -0.674621,-0.230561 -0.767281,-0.50764 -3.854881,-0.545269 -1.671309,0.02371 -3.336301,0.0941 -5.461561,0.384889 -2.210059,0.33795 -4.42354,0.672701 -6.36257,1.265531 -0.947299,-0.0733 -1.35241,-0.87131 -0.941848,-1.105151"
         id="path7"
         class="cursive"
         sodipodi:nodetypes="cccccccccc"
         inkscape:label="cursive-1-2" />
    </clipPath>
    <clipPath
       clipPathUnits="userSpaceOnUse"
       id="clipPath10">
      <path
         d="m 69.493006,33.284139 c -1.227619,0.813549 -2.74682,1.624179 -4.175631,2.16363 0.122471,-0.48405 0.312002,-0.97101 0.387821,-1.49879 0.0846,-0.63568 0.01749,-1.2626 -0.513209,-1.69708 -0.694,-0.55694 -1.259682,-0.224531 -1.88078,0.207028 -1.268431,0.883531 -2.43481,1.874962 -3.47871,2.99175 0.12247,-0.481119 0.262429,-0.99141 0.431559,-1.47546 0.344069,-1.1343 0.71148,-2.24527 1.148871,-3.338748 0.833959,-2.18404 1.842878,-4.315581 3.000499,-6.362581 0.303271,-0.52195 -0.85145,-1.42881 -1.110969,-0.97975 -1.373402,2.42897 -2.563112,4.977509 -3.496212,7.598929 -0.46364,1.30052 -0.88936,2.6156 -1.236359,3.954021 -0.30617,1.084731 -0.367411,2.058649 0.65318,2.74682 0.166201,0.102071 0.542359,0.256601 0.67941,0.0408 1.280089,-1.630021 2.82262,-3.055911 4.543031,-4.198961 -0.07,0.300349 -0.154551,0.61818 -0.247862,0.92144 -0.128288,0.416981 -0.250758,0.89811 -0.19245,1.347171 0.183711,0.97975 1.18096,1.31217 1.991591,0.956429 1.46672,-0.60652 2.784721,-1.69709 4.096901,-2.563119 0.53653,-0.381992 -0.172051,-1.116801 -0.600681,-0.813551 z m 0,0"
         id="path10"
         class="cursive"
         inkscape:label="cursive-2"
         style="fill:#cb56e6;fill-opacity:1;stroke-width:0.18662" />
    </clipPath>
    <clipPath
       clipPathUnits="userSpaceOnUse"
       id="clipPath11">
      <path
         d="m 74.136816,32.892717 c -0.886441,-1.24219 -1.944931,-0.93894 -2.92178,-0.0759 -0.195361,-0.481121 -1.04098,-0.959351 -1.18386,-0.475301 -0.396571,1.36175 -0.83979,2.703079 -1.23344,4.064821 -0.139959,0.507378 1.003081,1.36757 1.230519,0.763979 0.320752,-0.854369 0.77856,-1.659171 1.358831,-2.358999 0.247859,-0.33533 0.539451,-0.647332 0.85729,-0.918512 0.15163,-0.125399 0.763971,-0.66776 1.055571,-0.691078 0.195358,0.166198 0.428638,0.329499 0.653169,0.288679 0.33533,-0.0466 0.358651,-0.364501 0.1837,-0.59777 z m 0,0"
         id="path12"
         class="cursive"
         inkscape:label="cursive-3"
         style="fill:#cb56e6;fill-opacity:1;stroke-width:0.18662" />
    </clipPath>
    <clipPath
       clipPathUnits="userSpaceOnUse"
       id="clipPath13">
      <path
         d="m 81.619527,32.469788 c -1.245111,1.13139 -4.362252,2.965511 -5.694831,3.24544 0.0321,-0.18371 0.0875,-0.370321 0.142869,-0.530701 0.778561,-0.440309 3.700341,-1.8312 2.318182,-3.061729 -0.944761,-0.85729 -2.07032,0.0641 -2.691411,0.833951 -0.6765,0.863118 -1.592109,2.531038 -0.705659,3.551618 0.574439,0.679411 1.329668,0.55694 2.05282,0.25368 1.965349,-0.86895 3.72949,-2.35608 5.41782,-3.633258 0.40532,-0.326581 -0.39365,-1.055571 -0.83979,-0.659001 z m 0,0"
         id="path14"
         class="cursive"
         inkscape:label="cursive-4"
         style="fill:#cb56e6;fill-opacity:1;stroke-width:0.18662" />
    </clipPath>
    <clipPath
       clipPathUnits="userSpaceOnUse"
       id="clipPath15">
      <path
         d="m 90.53217,31.756257 c -0.798973,0.82813 -3.044243,2.778901 -4.382665,3.038412 -0.0204,0 -0.0204,0 -0.0437,0.003 0.0408,-0.34408 0.0641,-0.659001 0.17204,-1.03224 0.0875,-0.341173 0.198279,-0.688161 0.215778,-1.052651 0.01749,-0.0466 0.01461,-0.113731 -0.01749,-0.201199 -0.01461,-0.221613 -0.28576,-0.498631 -0.5657,-0.659011 -0.166198,-0.0992 -0.349909,-0.15163 -0.504449,-0.0962 -0.131221,0.032 -0.242031,0.0846 -0.373251,0.14288 -0.69107,-0.784391 -1.845781,-0.857282 -2.697239,-0.139962 -1.038072,0.915601 -1.676659,2.358991 -1.869109,3.709072 -0.0554,0.45197 0.626919,1.14889 1.087638,0.933098 1.306341,-0.641508 2.227781,-1.88078 3.359161,-2.758479 -0.0817,0.393649 -0.119549,0.781481 0.0437,1.195541 0.227431,0.61527 0.83103,1.110969 1.510451,1.151789 0.676489,0.01749 1.30343,-0.390739 1.816621,-0.746479 1.137219,-0.80772 2.125734,-1.804961 3.087995,-2.805131 0.376147,-0.41115 -0.443222,-1.11972 -0.83979,-0.682329 z m -7.995513,2.087822 c 0,0 0.0204,-0.02619 0.0204,-0.02619 0.221621,-0.329488 0.466559,-0.664829 0.74357,-0.9331 0.189531,-0.174948 0.379071,-0.367398 0.62109,-0.451959 0.0904,-0.006 0.177869,-0.0379 0.262441,-0.0642 0.003,0.0204 0.003,0.0204 0.02619,0.01749 -0.600681,0.408228 -1.12555,0.944758 -1.673749,1.457968 z m 0,0"
         id="path16"
         class="cursive"
         inkscape:label="cursive-5"
         style="fill:#cb56e6;fill-opacity:1;stroke-width:0.18662" />
    </clipPath>
    <clipPath
       clipPathUnits="userSpaceOnUse"
       id="clipPath18">
      <path
         d="m 99.168109,21.085528 c -0.0437,-0.0204 -0.0875,-0.0175 -0.131218,-0.0117 -0.02331,0 -0.02331,0 -0.02331,0 -0.0904,0.006 -0.177868,0.0584 -0.239109,0.15164 -0.02331,0.003 -0.0204,0.0262 -0.0204,0.0495 -1.338411,3.21337 -2.767232,6.485049 -4.73841,9.38933 -0.0612,0.1108 -0.142872,0.20995 -0.201192,0.326591 -0.696909,-0.55695 -1.69124,-0.548201 -2.431888,0.0933 -1.05849,0.915599 -1.700004,2.358988 -1.889546,3.70907 -0.0554,0.451969 0.626946,1.148879 1.084736,0.933098 1.59502,-0.702739 2.822639,-1.837039 3.87821,-3.134638 -0.314921,0.994339 -0.600681,1.965349 -0.863132,2.9801 -0.14287,0.524859 1.070152,1.341329 1.230532,0.763968 1.256768,-4.92502 3.207528,-9.631349 5.140799,-14.293929 0.0204,-0.0466 0.0204,-0.07 0.035,-0.11373 0.02331,-0.31783 -0.46364,-0.75814 -0.831048,-0.8427 z m -7.925528,12.672681 c 0.0992,-0.20996 0.218699,-0.42281 0.338249,-0.612352 0.22162,-0.33242 0.469471,-0.667758 0.743561,-0.936009 0.192468,-0.17205 0.399489,-0.367421 0.64443,-0.451979 0.0904,-0.008 0.15454,-0.0379 0.24203,-0.0642 0.02619,0.0204 0.0466,0.01749 0.0699,0.0146 -0.600681,0.766889 -1.2422,1.492961 -2.038252,2.049901 z m 0,0"
         id="path18"
         inkscape:label="cursive-6"
         class="cursive"
         style="fill:#cb56e6;fill-opacity:1;stroke-width:0.18662" />
    </clipPath>
    <clipPath
       clipPathUnits="userSpaceOnUse"
       id="clipPath36">
      <path
         id="path36"
         style="font-size:80.5957px;line-height:1.25;font-family:'Intro Demo';-inkscape-font-specification:'Intro Demo';letter-spacing:-1.515px;word-spacing:0px;display:inline;fill:#fff5ff;fill-opacity:1;stroke:#fff5ff;stroke-width:0.326117;stroke-opacity:1"
         class="the"
         inkscape:label="the-3"
         d="m 37.916015,7.927734 v 2.535157 h 2.660157 v 8.55664 h 2.738281 v -8.55664 h 2.642578 V 7.927734 Z m 9.482422,0 v 11.091797 h 2.830078 v -4.453125 h 3.339844 v 4.453125 h 2.830078 V 7.927734 h -2.830078 v 4.025391 H 50.228515 V 7.927734 Z m 11.478516,0 v 11.091797 h 6.896484 V 16.5 h -4.144531 v -1.949219 h 3.679687 V 12.03125 h -3.679687 v -1.568359 h 4.003906 V 7.927734 Z M 53.708984,20.066406 48.83789,30.888672 v 0.412109 h 2.707032 l 0.632812,-1.394531 h 4.267578 l 0.634766,1.394531 h 2.705078 V 30.888672 L 54.90039,20.066406 Z m 23.697266,0.01563 c -2.752498,0 -5.535312,1.900499 -5.550782,5.671875 0.0154,3.771366 2.798284,5.674053 5.550782,5.658203 2.304047,0 4.732716,-1.23552 5.134765,-4.373047 h -2.722656 c -0.29381,1.188459 -1.23688,1.789063 -2.412109,1.789063 -1.639129,-0.0159 -2.689453,-1.44207 -2.689453,-3.074219 0,-1.838148 1.065784,-3.089844 2.689453,-3.089844 1.159759,0 1.980598,0.507734 2.367187,1.632813 h 2.720703 c -0.417519,-2.963237 -2.845693,-4.214844 -5.08789,-4.214844 z m -16.580078,0.07813 V 31.300781 H 63.6875 v -5.451172 l 5.457031,5.466797 h 0.990234 V 20.208984 h -2.830078 v 5.435547 l -5.472656,-5.484375 z m -21.841797,0.04883 v 11.091797 h 4.082031 c 7.051333,-0.0317 7.051333,-11.060107 0,-11.091797 z m 45.291015,0 v 11.091797 h 6.89844 V 28.78125 H 87.029297 V 26.832031 H 90.70898 V 24.3125 H 87.029297 V 22.744141 H 91.0332 v -2.535157 z m -42.523437,2.582032 h 1.314453 c 3.448357,0 3.448357,5.927734 0,5.927734 h -1.314453 z m 12.544922,1.77539 1.251953,2.916016 h -2.474609 z" />
    </clipPath>
  </defs>
  <g
     inkscape:label="Layer 1"
     inkscape:groupmode="layer"
     id="layer1"
     transform="translate(-10,-10)"
     style="display:inline">
    <g
       id="g20"
       transform="matrix(0.08380212,0,0,0.08380212,5.8953362,14.392648)">
      <g
         clip-path="url(#e703e778a8)"
         id="g9"
         inkscape:label="map"
         transform="translate(-1.5,-1.5)"
         style="fill:#ffa6db;fill-opacity:1">
        <path
           fill="#000000"
           d="m 304.02344,102.42578 c 0.0117,-0.0234 0.0234,-0.0469 0.0273,-0.0625 0.16406,-0.43359 -0.0547,-0.92187 -0.49219,-1.08984 -0.0859,-0.0312 -0.17187,0.0156 -0.26953,0.0117 C 278.94137,63.035136 236.19137,37.582011 187.5859,37.582011 c -31.17188,0 -59.9336,10.480469 -82.9961,28.070313 -0.26562,0.05469 -0.45312,0.214844 -0.57031,0.453125 -32.527342,25.097656 -53.539061,64.421871 -53.539061,108.589841 0,75.59766 61.503911,137.10156 137.105471,137.10156 75.59375,0 137.10156,-61.5039 137.10156,-137.10156 0,-26.51562 -7.58203,-51.26953 -20.66406,-72.26953 z m -2.99219,139.73828 c -7.8125,4.70703 -17.26172,8.8125 -27.97656,12.23438 2.97656,-13.16797 4.77734,-25.63672 5.59765,-37.44141 11.36328,-3.76172 21.23438,-8.27734 29.17578,-13.39062 0.30079,9.33203 0.0664,18.30859 -0.51171,26.72265 -1.89844,4.07031 -3.99219,8.03906 -6.28516,11.875 z m -169.00391,51.32422 c -3.09375,-3.14453 -5.97656,-6.35937 -8.66406,-9.64844 8.51172,2.32422 18.52344,4.5625 29.60938,6.26953 3.16406,5.14063 6.84375,10.00391 11.11718,14.49219 -11.21484,-2.01953 -21.9375,-5.45312 -31.98828,-10.12109 0.1836,-0.32422 0.19531,-0.71875 -0.0742,-0.99219 z m -2.5664,-0.26562 c -8.30469,-4.08985 -16.10938,-9.03907 -23.32031,-14.71485 4.02734,1.41406 8.91015,2.98828 14.48437,4.56641 2.72266,3.45703 5.66406,6.83984 8.83594,10.14844 z m -7.85156,-11.6211 c -6.32813,-8.08984 -11.4375,-16.5625 -15.32422,-25.42578 10.72265,3.37109 22.69531,6.04688 35.45703,7.98438 2.40234,8.49218 5.71093,16.5664 10.08593,24.0625 -11.42968,-1.81641 -21.64453,-4.21094 -30.21874,-6.6211 z M 65.121094,199.125 c 0.0039,11.05859 1.410156,22.71875 4.578125,34.94922 -6.769531,-13.39844 -11.328125,-28.08203 -13.183594,-43.58985 2.296875,3.01172 5.183594,5.88672 8.605469,8.64063 z m 7.558594,39.45312 c -3.945313,-13.40234 -5.730469,-26.10937 -5.847657,-38.125 7.460938,5.60547 17.175781,10.58985 28.640625,14.77735 0.378906,13.35547 2.992188,26.09765 7.800784,38.17969 -12.17969,-4.10157 -22.61719,-9.08985 -30.593752,-14.83204 z m 1.417968,-81.96484 c 7.574219,4.94922 17.085938,9.36328 28.042974,13.07813 -3.832036,12.51953 -6.281255,25.3789 -6.679692,38.33593 -0.05078,1.7461 -0.05078,3.48047 -0.03516,5.20313 -11.566406,-4.28516 -21.308593,-9.34766 -28.617187,-15.01563 0.101562,-14.99218 2.824218,-28.88281 7.289062,-41.60156 z m -6.246094,-37.5039 c 2.839844,-4.54297 5.933594,-8.82422 9.210938,-12.88282 2.921875,4.92188 7.761719,9.51563 14.171875,13.66016 -7.085937,10.20312 -13.367187,21.61328 -17.996094,34.17187 -5.832031,-4.0664 -10.351562,-8.48437 -13.292969,-13.17187 2,-7.54688 4.660157,-14.82422 7.90625,-21.77734 z m 6.402344,-12.09375 c 0.5625,-0.9375 1.152344,-1.85547 1.734375,-2.77735 0.06641,0.13672 0.128907,0.27344 0.1875,0.40625 -0.636719,0.78516 -1.292969,1.56641 -1.921875,2.3711 z M 118.75781,62.046875 c 0.22657,-0.04297 0.51563,-0.0625 1.01172,-0.08594 1.16016,-0.05469 0.16016,0.472656 0,0.894531 -0.15234,0.421875 -1.25781,1.789062 -1.94922,2.421875 -0.68359,0.632812 -1.15625,1.054687 -1.63281,2.578125 -0.46875,1.527343 0,1.160156 0.47656,0.265625 0.47266,-0.894532 1.47266,-1.628906 3.21094,-2.949219 1.73828,-1.3125 1.16016,-0.632813 2.05859,-1.054687 0.89454,-0.417969 1.57813,-0.835938 2.73829,-1.472657 1.16015,-0.632812 0.57812,-0.417969 1.41796,-1.371093 0.84375,-0.945313 1.375,-0.839844 2.3711,-1.632813 1,-0.789063 1.52734,-0.894531 1.94531,-1.316406 0.42578,-0.417969 0.63672,-0.582031 1.11719,-1.265625 0.46875,-0.683594 1.10547,-0.785156 1.68359,-1.628906 0.57813,-0.84375 0.89063,-0.84375 1.37109,-1.476563 0.0586,-0.08203 0.0703,-0.140625 0.10547,-0.210937 2.55469,-1.121094 5.14453,-2.191407 7.78125,-3.152344 0.67578,1.273437 1.64453,2.5 2.875,3.664062 -4.80078,2.136719 -9.8164,4.558594 -14.9414,7.285156 -0.15235,0.03125 -0.3125,0.06641 -0.51172,0.101563 -0.46094,0.08203 -0.25,0.05078 -0.60938,0.488281 -1.90234,1.027344 -3.82421,2.105469 -5.74609,3.222656 -0.41016,0.117188 -0.82422,0.515626 -1.44141,0.71875 -0.63671,0.207032 -0.73828,0.421876 -1.37109,0.839844 -0.0469,0.03125 -0.0234,0.09766 -0.0586,0.136719 -4.07813,2.445313 -8.16407,5.070313 -12.22266,7.921875 -0.94531,-1.375 -1.64844,-2.792969 -2.13281,-4.230469 3.98437,-3.121093 8.1289,-6.035156 12.45312,-8.691406 z m 2.05078,6.855469 c 0.0703,0.324218 0.11329,0.636718 0.0156,0.851562 -0.31641,0.738282 0,0 -0.73828,0.105469 -0.6211,0.08984 -0.83203,0.257813 -1.62891,0.496094 0.78906,-0.492188 1.57422,-0.976563 2.35156,-1.453125 z m 127.17578,-9.003906 c 0.80469,0.808593 1.5625,1.523437 2.11329,1.742187 1.05078,0.425781 1.89062,1.054687 2.84375,1.789063 0.9414,0.746093 6.42578,7.378906 6.42578,7.378906 0,0 0.3164,4.425781 3.79297,5.371094 2.38671,0.65625 3.9375,1.304687 4.9375,1.882812 -1.63672,1.6875 -3.60547,3.304688 -5.89063,4.839844 -2.19141,-2.238282 -4.38281,-4.355469 -6.54297,-6.320313 -8.78125,-7.984375 -17.72265,-14.257812 -26.01953,-19.214843 1.48438,-0.894532 2.80859,-1.847657 3.92188,-2.839844 4.90234,1.660156 9.79296,3.457031 14.41796,5.371094 z m 23.60547,18.917968 c 1.89844,-0.527344 1.78907,0.105469 4,1.476563 2.21485,1.371093 1.90235,0.738281 2.84766,3.160156 0.94922,2.425781 1.15625,0.742187 1.15625,3.898437 0,3.160157 2.20703,5.160157 1.89453,7.265626 -0.3125,2.109374 0.89844,3.480468 0.0352,5.269531 -0.87891,1.792971 -2.25,2.425781 -1.39844,3.480471 0.83984,1.05078 0.41797,0.83984 2.42187,1.26562 1.9961,0.41797 5.89844,1.36328 6.95704,2.20703 1.05078,0.84375 1.37109,2.32032 0.83984,3.05469 -0.52734,0.73828 -0.95313,0.63281 -3.58203,2.42578 -0.5625,0.375 -1.03906,0.63282 -1.48828,0.8711 -2.53516,-4.32813 -5.17578,-8.39453 -7.89453,-12.1875 0.59375,-0.34375 1.10937,-0.79688 1.30468,-1.390629 0.21094,-0.636719 -0.41797,-0.21875 0,-1.335937 0.42188,-1.125 0.0703,-0.214844 0.42188,-1.125 0.35156,-0.914063 0.41797,-1.332032 0.41797,-1.332032 0,0 0.55859,-0.5 0.69922,-0.777343 0.14453,-0.28125 0.20703,-0.417969 0,-1.332031 -0.20704,-0.917969 0,-0.640626 -0.63282,-1.335938 -0.63281,-0.703125 -0.98437,-0.984375 -1.54297,-1.191406 -0.55859,-0.214844 -0.84375,-0.355469 -1.19921,-0.421875 -0.34375,-0.07031 -0.34375,0.207031 -0.97657,-0.210938 -0.63281,-0.421875 -0.80468,-0.636719 -1.5625,-0.84375 -0.75781,-0.210937 -0.67968,-0.140625 -1.60156,-0.5625 -0.91797,-0.421875 -1.26172,-0.636719 -1.61328,-0.773437 -0.35547,-0.140625 0.625,0.703125 -0.35547,-0.140625 -0.97656,-0.84375 -0.69141,-0.496094 -0.97656,-0.84375 -0.28906,-0.347657 -0.0781,0.210937 -0.70703,-0.84375 -0.63282,-1.050781 -0.63282,-1.050781 -0.63282,-1.050781 L 267.50781,85 c 0,0 0.28516,-0.414062 -0.41797,-0.28125 -0.28906,0.05469 -0.63281,0.28125 -1.05468,0 -0.41797,-0.277344 -0.63282,-0.988281 -0.84766,-0.703125 -0.17578,0.246094 -0.92578,0.46875 -0.73047,1.242187 -0.38281,-0.398437 -0.75781,-0.804687 -1.13281,-1.195312 2.34765,-1.589844 4.3789,-3.261719 6.08203,-5.007812 0.47656,0.4375 0.53516,0.222656 2.18359,-0.238282 z m 22.97266,29.394534 c -0.42578,-0.94531 -0.42578,-3.16016 1.46875,-3.26563 1.33984,-0.0742 3.11719,0.83203 4.07422,1.37891 -1.25,1.89453 -2.79297,3.74609 -4.6211,5.53516 -0.14062,-2.39454 -0.53515,-2.75782 -0.92187,-3.64844 z m 1.80859,32.58203 c 0.1211,1.19922 -0.1289,2.58203 -0.1289,3.44922 0,0.94922 -1.05078,2.10937 -1.47266,4.11328 -0.42187,2 -1.26953,0.94922 -1.26953,4.95312 0,1.98828 -0.12109,5.02735 0.0937,7.9961 -5.18359,2.52343 -10.92188,4.86328 -17.15625,6.96875 -2.36328,-13.9961 -6.08984,-26.60547 -10.58203,-37.85547 8.0625,-2.82031 15.125,-6.09375 20.98437,-9.73438 0.625,0.84766 1.13282,1.66797 1.39063,2.70313 0.32422,1.26172 0.73828,2 1.48437,2.42578 0.16407,0.0898 0.3125,0.125 0.46875,0.14063 2.32422,4.89453 4.38672,9.85546 6.1875,14.83984 z m -64.45703,68.91797 c -0.21875,-0.0781 -0.40234,-0.13672 -0.67187,-0.2461 -1.78907,-0.74218 -2.21094,0.51953 -2.21094,-0.41797 0,-0.95703 0,-0.63281 -0.52734,-1.375 -0.53516,-0.73828 -1.48047,-0.94921 -2.84766,-1.48046 -1.37109,-0.52735 -0.84375,-0.10157 -1.37109,-0.10157 -0.52735,0 -1.15625,0.3125 -2.31641,-0.63281 -1.16016,-0.94531 0,0 -0.10938,-0.3125 -0.10546,-0.31641 0.52735,-0.95703 0.52735,-0.95703 0,0 0,0 -0.63281,0 -0.63282,0 -0.83594,-0.41406 -1.26172,-0.83984 -0.41797,-0.42188 -1.15625,-1.05469 -2.10157,-1.05469 -0.95312,0 -0.53515,0.21094 -1.37109,0.53125 -0.84766,0.3125 -3.89844,0.3125 -3.89844,0.3125 0,0 -1.05078,0 -1.89843,0 -0.84375,0 -0.63672,0 -1.3711,0 -0.73828,0 -2.10937,-0.3125 -2.10937,-0.3125 0,0 -0.63282,-0.42188 -1.78907,-0.83985 -1.15625,-0.41796 -0.52734,-0.63281 -1.58203,-0.73828 -1.05078,-0.10547 -0.94531,0.73828 -1.47265,1.47266 -0.52735,0.73828 0,0 -0.73828,0.41797 -0.73829,0.42187 -0.52735,1.16406 -0.41797,1.47656 0.0977,0.32031 0,1.26563 0,1.26563 0,0 -1.0586,0.42187 -1.69141,0.10546 -0.63281,-0.32031 0.31641,-2.73437 0.31641,-3.58593 0,-0.83594 0,0 0.10156,-0.73438 0.11328,-0.73828 0.95312,-1.05078 0.84375,-1.37109 -0.0977,-0.32031 -1.68359,0.84375 -2.10156,0.94922 -0.42188,0.10547 -1.6875,0.95312 -3.26563,2.10156 -1.58594,1.16406 -0.95312,0.52734 -1.79687,0.74219 -0.83985,0.21093 -0.83985,0.21093 -1.57422,1.26172 -0.74219,1.05078 -0.42188,0.73828 -0.74219,0.94921 -0.3125,0.20704 -1.47266,2.74219 -1.47266,2.74219 l -1.37109,-0.41797 c 0,0 0,0 -0.84375,-0.85156 -0.83984,-0.83984 0,-2.31641 -0.55859,-2.94531 -0.125,-0.13672 -0.40625,-0.13672 -0.75782,-0.0664 -0.0391,-5.39453 -0.0625,-10.8125 -0.0508,-16.25 0.17969,0.0664 0.40625,0.13281 0.8086,0.2461 1.40234,0.375 0.55859,0.26171 1.40234,0.375 0.84375,0.10546 0.41797,0.83984 1.57813,0 1.16015,-0.84375 1.16015,-0.32032 1.16015,-0.84375 0,-0.52735 -1.37109,-1.48047 -2.26562,-1.05469 -1.09766,0.51562 -2.3711,-0.3086 -2.6836,0 0,-1.54688 0.0117,-3.09766 0.0117,-4.64844 0.23828,0.008 0.47656,0.008 0.70703,0.008 -0.11328,0.15625 -0.22656,0.29297 0.0859,0.53125 0.55859,0.42578 -1.72656,0.10547 0.0469,1.05078 1.77734,0.95313 1.67187,0.95313 2.9375,0.84766 1.26562,-0.10547 1.26171,0.51563 2.42578,0.0508 1.15234,-0.46875 2.21093,-1.10937 2.21093,-1.10937 0,0 1.36329,-0.20703 -0.52734,-0.73438 -1.37109,-0.38672 -2.29297,-0.38672 -3.09766,-0.625 14.26563,-0.0898 28.09766,-1.05859 41.11329,-2.80469 0.17968,9.39844 -0.0547,19.37891 -0.77735,29.91407 z m -59.99609,-17.42188 c -0.83594,-0.21094 -5.58203,-0.21094 -6.63281,-0.21094 -1.05079,0 0.21484,-2.53515 0.3164,-3.05859 0.10547,-0.51953 0.42188,-1.47266 0.63672,-2.10156 0.21484,-0.63281 0.52344,-1.15625 0.83984,-1.89844 0.31641,-0.73047 0.20313,-0.63281 0.53125,-1.36328 0.3125,-0.74219 0.52344,-0.95313 0.62891,-1.48047 0.0195,-0.0977 0.0391,-0.17578 0.0586,-0.25 5.51563,0.35156 11.12891,0.57422 16.82032,0.64844 -0.0352,7.60937 -0.0195,15.21094 0.0391,22.75 -1.0625,0.4414 -2.17969,0.98047 -2.69531,1.08203 -1.05078,0.21094 -1.6875,0.10547 -2.42188,0 -0.73828,-0.10156 -2.21484,-0.94531 -2.63281,-1.36719 -0.41797,-0.42578 -1.05078,-0.95312 -1.05078,-0.95312 0,0 -0.63672,-0.94922 -0.94922,-1.3711 -0.32031,-0.42187 -0.21094,-0.625 -0.42188,-0.94531 -0.21093,-0.31641 0.10157,-2.52734 0.10157,-3.26172 0,-0.74609 0.73828,-1.375 0.63281,-1.79687 -0.10547,-0.42188 -2.95313,-4.21485 -3.80078,-4.42188 z m -11.375,-6.64062 c -0.52735,0.42187 -1.15625,0.52734 -2.52735,0.52734 -1.37109,0 -2.21484,0 -3.05859,-0.10156 -0.83594,-0.10547 -1.15625,-0.21094 -1.68359,-0.42188 -0.52735,-0.20703 -2.32032,-0.41797 -3.48047,-1.36718 -1.15625,-0.94922 0,0 -0.41797,-1.0586 -0.42188,-1.05078 -0.73828,-1.47656 -1.58203,-2.3164 -0.375,-0.375 -0.69531,-0.75 -0.94531,-1.10938 5.51562,0.74609 11.17968,1.34375 16.96093,1.79688 -0.6914,0.33203 -0.30468,0.46484 -0.94531,0.78125 -0.84766,0.41796 -0.63672,0.84765 -1.79297,2.84765 -1.16406,2.00391 0,0.004 -0.52734,0.42188 z m 116.73047,-84.98438 c 0,0 -0.0391,0.0469 -0.0664,0.0898 -1.17578,-1.621098 -2.35547,-3.203129 -3.54687,-4.726566 -0.0977,-0.445313 -0.15235,-0.625 -0.65625,-0.839844 -1.55469,-1.972656 -3.13282,-3.875 -4.71094,-5.691406 0.91406,0.257812 0.97656,0.121094 1.39453,0.417968 0.5,0.351563 0.64062,1.125 1.13281,1.40625 0.49219,0.28125 1.33203,0.28125 2.03516,0.421876 0.70703,0.136718 0.70703,0.34375 0.98437,0.632812 0.28125,0.28125 0.45313,0.910156 0.47657,1.125 0.0117,0.210938 0.16015,0.871094 0.36328,1.105469 0.21484,0.226562 0.008,0.4375 0.5664,0.929687 0.5586,0.492188 0.41797,0.542969 1.19532,0.726563 0.77343,0.191406 0.77343,0.191406 0.77343,0.191406 0,0 0.14063,0.203125 0,1.050781 -0.14843,0.847656 0.0586,3.160154 0.0586,3.160154 z m -8.21094,-7.679685 c -0.38281,0.59375 -0.80469,1.1875 -0.49219,1.621094 0.42188,0.578125 0.0703,1 0.84375,1.5625 0.77344,0.5625 0.63672,0.5625 0.98047,0.984375 0.35156,0.417968 -0.27734,1.125 0.42188,1.828125 0.70703,0.703125 0.63281,1.476561 1.60937,1.054691 0.98438,-0.417972 0.4375,0.42187 1.02344,-0.843754 0.0781,-0.171875 0.16797,-0.300781 0.24609,-0.398437 3.73047,4.929691 7.10156,9.984371 10.1211,15.128911 -0.69532,0.35156 -1.01172,0.64453 -0.85938,1.35156 0.25391,1.07812 1.72656,2.78906 2.75781,3.99219 -5.72656,3.51562 -12.66406,6.6875 -20.54687,9.43749 -4.88281,-11.8789 -10.58594,-22.20703 -16.39453,-30.992182 -1.13282,-1.71875 -2.28516,-3.378907 -3.4336,-5.015626 6.40625,-2.207031 11.96875,-4.796874 16.55078,-7.679687 2.51563,2.605469 4.91016,5.265625 7.17188,7.96875 z M 167.78516,180.20703 c -0.008,0 -0.0195,0 -0.0273,0 -7.34375,-0.48828 -14.51172,-1.21484 -21.4375,-2.15234 0,-0.043 0,-0.0742 0,-0.20313 0,-0.3164 0,-1.47656 0,-2.52344 0,-1.05468 0.21094,-1.6914 0,-2.74218 -0.20703,-1.05078 0.42188,-0.94532 0.63281,-1.47657 0.20704,-0.52734 0.52735,-0.3125 1.6836,-1.15625 1.15625,-0.84375 0,-1.58203 -0.21094,-1.89453 -0.20703,-0.32031 -0.10156,-0.63281 -0.10156,-1.16015 0,-0.53125 0.52734,-0.42188 0.52734,-0.73828 0,-0.31641 3.58203,-2.21485 5.48047,-2.84766 1.89453,-0.62891 0.73438,-0.41797 1.89453,-0.52344 1.15625,-0.10547 1.3711,0.42188 3.71094,1.58203 2.33203,1.15625 1.13281,0.10157 1.97656,0 0.84375,-0.11328 1.47656,0 2.21094,0 0.73828,0 1.05469,-0.42578 1.16016,-0.73828 0.10546,-0.32031 -0.63282,-0.73828 -0.63282,-1.05469 0,-0.3164 1.3711,-0.10156 1.9961,-0.10156 0.6289,0 1.48047,0 2.63672,0 1.15625,0 1.6875,0.10156 2.21484,0.62891 0.52344,0.53125 0.94531,0.83984 2.21094,1.48047 1.26172,0.6289 0.83984,0.10156 1.57812,0.10156 0.73828,0 0.73828,0 1.47656,0 0.73829,0 0.41797,0.84375 0.52735,1.78906 0.10547,0.94922 0.42187,1.58203 0.42187,1.58203 0,0 0,0 0,1.26172 0,1.26563 0.3125,0.94922 0.63672,1.16016 0.3086,0.20703 1.89063,3.26953 3.15625,3.05859 1.26563,-0.21094 0.63281,-0.42578 1.05469,-1.05859 0.41797,-0.63281 0.52344,-2.42578 0.52344,-2.42578 0,0 -0.73438,-0.94532 -0.94532,-1.36719 -0.21093,-0.41797 -0.63281,-1.78906 -0.73437,-2.42578 -0.10547,-0.63672 -0.21094,-1.58203 -0.42578,-1.89453 -0.21094,-0.31641 0,-1.79297 -0.0977,-2.94922 -0.11328,-1.16016 0.41797,-1.26563 0.52735,-1.6875 0.10156,-0.41797 0.94531,-1.05078 1.15625,-1.3711 0.20703,-0.3164 1.15625,-0.94531 1.57812,-1.58203 0.27344,-0.40234 0.73828,-0.65625 1.24219,-0.90625 -0.1211,7.85938 -0.21485,15.83594 -0.25391,23.84766 -0.95312,-0.42578 -2.35547,-1.15234 -2.35547,-1.15234 0,0 -1.05468,-0.92188 -1.89453,-1.13282 -0.84375,-0.21093 -2,0 -3.05859,0 -1.05078,0 -3.3711,0.375 -3.6836,1.13282 -0.3125,0.76171 -0.73828,1.71093 -0.73828,1.71093 0,0 0.42188,0 1.05078,0 0.63282,0 0.63282,-0.3164 1.26563,-0.52734 0.63281,-0.21094 0.52734,-1.25391 1.37109,-0.94531 0.83985,0.3125 2,-0.41407 2.73828,0 0.73438,0.41797 1.89454,1.47265 1.89454,1.47265 0,0 0.21093,-0.52734 0.53125,0 0.11328,0.19141 0.42968,0.38672 0.80859,0.57813 -5.17188,-0.0977 -10.26172,-0.32031 -15.27734,-0.64844 z m -10.125,-103.601561 c 1.72656,-0.210938 1.51562,-0.84375 3.19531,-1.371094 1.6914,-0.527344 1.79297,-1.265625 2.53125,-0.84375 0.73828,0.417969 -0.21094,1.261719 0.84375,1.476563 1.05469,0.210937 1.26562,1.125 2.42187,0.824218 1.16407,-0.296875 0.21094,0.4375 1.16407,-0.296875 0.94531,-0.738281 1.25781,0.3125 0.94531,-0.738281 -0.31641,-1.050781 -1.48047,-1.6875 -1.6875,-2.632812 -0.21094,-0.949219 -0.62891,-0.03125 -0.42188,-1.332032 0.21094,-1.300781 0.10547,-1.511718 0.31641,-2.148437 0.21094,-0.632813 0.21094,-0.839844 0.21094,-1.472657 0,-0.632812 0.3125,-0.421874 -1.36719,-0.632812 -0.11719,-0.01172 -0.22266,-0.0078 -0.33203,-0.0078 0.74609,-0.851563 1.47265,-1.65625 2.19922,-2.464844 1.55859,-0.4375 0.19922,-0.07422 1.71093,-0.476563 0.39454,-0.101562 0.60938,-0.132812 0.7461,-0.140625 0.0586,0.01172 0.12109,0.02734 0.1875,0.03906 0.0273,0.01953 0.0508,0.02344 0.0859,0.01172 0.95312,0.171874 1.9375,0.300781 2.91796,0.445312 -0.0508,0.21875 0.23047,0.136719 0.55469,0.457031 0.35547,0.34375 -0.48828,0.238281 0.35547,0.34375 0.83984,0.105469 -0.10547,0 0.83984,0.105469 0.95313,0.109375 0.73829,0.527344 1.3711,0 0.0742,-0.05859 0.11719,-0.09375 0.17578,-0.140625 -1.25781,2.8125 -2.60156,5.894531 -3.97656,9.105469 -0.47657,0.535156 -0.39453,0.457031 -0.24219,0.578125 -0.80859,1.882812 -1.62109,3.839843 -2.45313,5.847656 -0.37109,0.02344 -0.14062,-0.429687 -0.14062,-0.429687 0,0 0,-1.050782 -0.62891,-1.371094 -0.63281,-0.3125 0,0 -0.94922,0.210937 -0.95312,0.210938 -0.6289,0.105469 -1.15625,-0.105469 -0.52734,-0.210937 -1.37109,-0.417968 -2.32421,-0.945312 -0.94532,-0.53125 -0.62891,-0.210938 -1.25782,-0.53125 -0.6289,-0.316406 -0.73828,-0.527344 -1.26562,-1.265625 -0.52344,-0.734375 -1.26172,0.738281 -1.58203,0.953125 -0.3125,0.210938 -2.63282,0.84375 -2.63282,0.84375 0,0 0,0 0,-0.425781 0,-0.417969 -0.73437,-0.417969 -0.73437,-0.417969 0,0 -0.22656,0.05469 -0.5625,0.09766 0.3125,-0.378906 0.62891,-0.769531 0.94141,-1.148437 z m 24.16796,-17.382813 c -0.10937,0.949219 0.52735,1.261719 0.83985,1.316406 0.3164,0.05469 0.3164,1.105469 0.3164,1.105469 0,0 -2.21484,1.261719 -2.42968,0.949219 -0.0742,-0.121094 -0.29297,-0.269531 -0.53125,-0.414062 0.57031,-1.253907 1.125,-2.460938 1.66015,-3.613282 0.0898,0.226563 0.16797,0.441406 0.14453,0.65625 z m 9.58594,-2.636718 c 0.31641,-0.210938 1.05078,-2.109376 1.16016,-2.632813 0.10156,-0.527344 0,-1.367187 0,-2 0,-0.632813 -0.95313,-0.847656 -1.69531,-1.054687 -0.12891,-0.03516 -0.23829,-0.02344 -0.35157,-0.01563 0.15235,-3.105468 0.27735,-5.5 0.35157,-7.050781 1.1875,1.410157 3.09375,3.808594 5.44921,7.183594 -0.27343,0.171875 -0.57421,0.390625 -0.73828,0.550781 -0.21484,0.210938 -1.47265,0.558594 -1.55078,0.839844 -0.0664,0.28125 -0.28125,0.914062 -0.28125,0.914062 0,0 0.5586,0.558594 0,0.914063 -0.55859,0.347656 -0.76562,1.898437 -0.49219,2.175781 0.28125,0.28125 0.5,0.417969 0.35157,0.773438 -0.14063,0.355468 -0.97657,1.121094 -1.19141,1.265625 -0.21094,0.140625 -0.98437,0.773437 -1.05469,1.335937 -0.0664,0.558594 0.28516,1.402344 0.4961,1.894532 0.20703,0.488281 0.69531,-0.140626 0.6289,1.054687 -0.0352,0.578125 0.0469,1.132813 0.27344,1.496094 -0.95703,0.02344 -1.91406,0.05078 -2.875,0.05078 0.11328,-2.464844 0.21094,-4.742188 0.3125,-6.851562 0.30469,-0.300782 0.94922,-0.675782 1.20703,-0.84375 z m -1.94922,51.203122 c 0.17578,0.78516 -0.50781,1.17969 -1.29297,1.51953 0.0664,-2.05468 0.13672,-4.08593 0.20313,-6.07812 0.66406,0.36328 0.54687,0.55469 1.08594,2.03125 0.58203,1.58203 -0.26563,1.36719 0.004,2.52734 z M 179.29687,63.757812 c 0.0586,0.02734 0.0937,0.03906 0.14454,0.0625 -0.0586,-0.0039 -0.10157,-0.01172 -0.15625,-0.01953 0,-0.01172 0.008,-0.02734 0.0117,-0.04297 z m 8.83204,2.1875 C 188.08594,66.898438 188.05469,67.875 188,68.875 c -0.13672,-0.08984 -0.26563,-0.183594 -0.41406,-0.28125 -0.66407,-0.417969 -2.28907,-0.527344 -3.54688,-0.527344 -1.26562,0 -2.95312,1.261719 -3.79297,1.789063 -0.84375,0.53125 0,0 -1.15625,2.636719 -1.16015,2.632812 0.3125,0.84375 0.52344,1.894531 0.21094,1.054687 0,0 0.21094,0.527343 0.21094,0.53125 1.05859,0.84375 1.58594,1.894532 0.52343,1.058594 0.10156,0.738281 0,1.691406 -0.10938,0.945312 -0.42579,1.15625 -1.0586,2.101562 -0.63281,0.949219 -0.41797,0.738282 -1.26172,1.058594 -0.84765,0.3125 -0.52734,-0.109375 -0.52734,-0.109375 0,0 0.21094,-2.320312 0.10547,-2.632812 -0.10547,-0.3125 0,-1.050781 -0.42578,-0.84375 -0.41797,0.210937 -0.94532,0.632812 -1.25391,0.105469 -0.32031,-0.527344 -0.21484,-0.738282 -0.21484,-0.738282 0,0 -1.05469,-0.632812 -1.26563,-0.945312 -0.20703,-0.320313 0.21094,-0.949219 0.21094,-0.949219 0,0 0.63672,-0.949219 0.63672,-1.265625 0,-0.316406 0,-1.050781 0,-1.050781 l -0.21094,-1.371094 v -0.980469 c 0.0781,-0.179687 0.15625,-0.371094 0.23438,-0.546875 l 0.71484,-0.476562 1.57812,-0.628907 0.32032,-1.371093 0.625,-0.945313 c 0,0 2.64062,0.101563 3.05859,0.101563 0.41797,0 2.84375,0.105469 3.26953,0.105469 0.39063,0 0.59375,-1.058594 0.61719,-1.210938 0.51562,0.01563 1.04297,0.02734 1.56641,0.03906 z M 189.46484,76.5 c 0.46875,0.207031 0.6836,0.945312 1.10157,2.109375 0.42578,1.15625 0.21484,0.945313 0.52734,0.945313 0.32031,0 0.95312,0.738281 0.95312,0.738281 0,0 1.57813,1.371093 1.57813,2.210937 0,0.839844 -0.3125,0.839844 -0.83984,1.261719 -0.53125,0.421875 -0.73829,1.054687 -0.84375,1.6875 -0.10938,0.632813 0.42187,1.683594 -0.20704,1.789063 -0.64062,0.105468 -0.64062,0.105468 -2.26562,0.105468 -0.21094,0 -0.38672,0.01172 -0.52344,0.03516 0.13672,-3.832031 0.28906,-7.484374 0.42969,-10.933593 0.0195,0.01172 0.0664,0.03906 0.0898,0.05078 z m -22.79297,21.597656 c -0.004,-0.09766 -0.0195,-0.167968 -0.0195,-0.316406 0,-1.050781 0.53125,-1.683594 0.84375,-2.839844 0.32032,-1.160156 0.63282,-0.742187 2.84766,-2.429687 2.21094,-1.683594 1.26172,-0.523438 2.10547,-0.734375 0.84375,-0.210938 0.63281,-0.105469 1.15625,-1.261719 0.52734,-1.160156 1.375,-0.636719 2.63672,-1.265625 1.26172,-0.632812 0,0 1.26172,-0.632812 1.26562,-0.632813 0,0 -0.10547,-1.160157 -0.10547,-1.15625 -0.84375,-0.839843 0.52734,-0.839843 1.37109,0 1.05859,-0.527344 1.05859,-0.527344 0,0 0,0 0.41797,-0.738282 0.41797,-0.738281 0.73828,0.207032 1.05078,0.207032 0.3125,0 0.95313,0 1.89844,-0.527344 0.94531,-0.527344 1.58203,-0.839844 2.10547,-1.261719 0.52734,-0.421875 0.63672,-0.53125 0.83984,-1.582031 0.21485,-1.050781 -0.41796,-0.945312 -0.52343,-1.683594 -0.10938,-0.738281 0.3164,-0.84375 0.21093,-1.476562 -0.10546,-0.632813 -0.10546,-0.953125 -0.10546,-0.953125 0,0 0,-0.527344 0.3125,-1.261719 0.3164,-0.734375 0.53125,-0.105469 1.16015,-0.417969 0.62891,-0.316406 0.94922,-0.105469 1.23047,-0.527343 0.0234,-0.03906 0.0859,-0.02344 0.125,-0.03906 -0.29297,7.042969 -0.59375,14.945313 -0.89062,23.5 -6.96485,-0.09375 -13.70313,-0.511719 -20.14454,-1.230469 z m 13.46094,-32.496094 c -0.0117,0.757813 -0.22656,0.675782 -0.83594,0.675782 -0.5039,0 -0.85156,0.171875 -1.32031,0.4375 0.1836,-0.429688 0.375,-0.839844 0.5625,-1.265625 0.53516,0.05469 1.05469,0.113281 1.59375,0.152343 z M 173.25,77.605469 c 0.16406,0.152343 0.32031,0.296875 0.35937,0.578125 0.10547,0.738281 0,0 -0.3164,0.527344 -0.3125,0.523437 -0.42578,0.738281 -1.02735,1.25 0.32422,-0.792969 0.65235,-1.585938 0.98438,-2.355469 z m 13.51562,23.406251 c -0.10156,2.97656 -0.20312,6.01953 -0.30078,9.13281 -0.48047,0.33985 -0.58203,0.69922 -0.73828,1.64844 -0.21484,1.25781 0.52344,0.73437 0.42188,2.63281 -0.11328,1.89453 -0.11328,0.94922 -0.95313,2 -0.84375,1.05078 -1.26172,0.52735 -1.89844,0.41797 -0.63281,-0.10156 -1.25781,-2.10937 -1.46875,-3.47656 -0.21484,-1.36719 0.20704,-1.36719 0.0977,-2.73828 -0.0977,-1.36719 -0.52344,-1.26172 -1.57812,-2 -1.05079,-0.74219 -1.36719,-0.42188 -2.42579,-0.74219 -1.05468,-0.3125 -1.15625,-0.20703 -2.52343,-0.83594 -1.375,-0.63672 -0.21094,-0.84765 -0.95313,-1.6875 -0.73437,-0.84375 -1.47656,-1.05469 -2.42578,-1.58203 -0.94531,-0.52734 -1.67969,-0.94922 -2.31641,-1.15625 -0.63281,-0.21484 -0.73437,-0.84766 -0.84375,-1.89844 -0.0352,-0.33203 -0.14453,-0.55859 -0.28515,-0.749998 5.85937,0.597658 11.9375,0.953128 18.1914,1.035158 z m -17.26953,23.42578 c 0.42578,0 1.6836,-0.94922 3.37891,-2.04687 0,0 0,0 0.62891,0.35937 0.63281,0.35547 0,0 -0.10547,0.31641 -0.10547,0.3125 0.52734,0.3125 1.05468,1.16015 0.52735,0.83985 3.26563,2.62891 3.05079,3.16016 -0.20704,0.52734 0,0 -3.58204,0.52734 -3.57812,0.52735 0,0 -1.04687,-0.10547 -1.0625,-0.10546 -1.0625,-0.84375 -1.69531,-1.05078 -0.62891,-0.21484 -0.52735,-0.73828 -1.78907,-0.84765 -1.26171,-0.10157 0,0 -1.15625,0.10937 -1.15625,0.10547 -0.52734,0.21094 -1.47656,0 -0.94531,-0.21094 -0.94531,-0.52734 -0.94531,-0.52734 0,0 3.26562,-1.05469 3.68359,-1.05469 z M 205.4375,98.75 c -0.34766,-0.578125 -0.66016,-1.089844 -1.07031,-1.496094 -0.62891,-0.632812 0,0 -0.73438,1.054688 -0.73828,1.054687 0,0 0.16406,0.421875 0.0195,0.03125 0,0.08594 -0.0156,0.128906 -1.48438,0.105469 -2.98828,0.175781 -4.49609,0.246094 -0.4375,-0.238281 -0.89063,-0.558594 -1.33985,-1.007813 -0.84375,-0.847656 -0.10547,-1.058594 -0.3164,-2.109375 -0.20704,-1.050781 -0.10547,-0.527343 -0.84766,-0.84375 -0.73047,-0.3125 -0.94141,-0.3125 -1.25391,-0.839843 -0.32031,-0.527344 -1.16406,-0.738282 -1.79297,-0.949219 -0.63671,-0.210938 -1.37109,-0.210938 -2.95312,-0.421875 -1.58203,-0.210938 -0.84375,0.316406 -1.3125,0.949218 -0.26563,0.347657 -0.57031,0.894532 -0.82813,1.726563 0.0586,-1.671875 0.11329,-3.316406 0.17579,-4.929687 0.21484,-0.01563 0.42968,-0.06641 0.64843,-0.167969 0.6836,-0.316407 1.52735,-1.265625 1.52735,-1.265625 0,0 1.05078,0.53125 2.20703,1.582031 1.15625,1.050781 1.90234,1.683594 2.63672,2.632813 0.73047,0.949218 1.37109,1.371093 3.47265,0.421874 2.10938,-0.949218 0.64063,-0.101562 2.10938,-0.421874 1.47656,-0.3125 0.41797,-0.949219 0,-1.472657 -0.41797,-0.527343 -1.15625,-0.632812 -2.20703,-1.054687 -1.0586,-0.417969 -0.95313,-0.738282 0,-0.632813 0.9414,0.105469 2.10156,0.105469 3.47265,-0.320312 1.3711,-0.417969 0.52735,-1.148438 0.52735,-1.148438 0,0 -1.6836,-0.640625 -3.36719,-2.007812 -1.69141,-1.367188 -1.05859,-1.160157 -1.26563,-1.789063 -0.21093,-0.632812 1.3711,-0.316406 1.78907,-0.316406 0.42187,0 0.94531,0.742188 2.0039,1.6875 C 203.42187,87.351562 203,86.199219 203,85.878906 c 0,-0.316406 -0.41797,-2.105468 -0.83984,-3.269531 -0.41797,-1.15625 -1.89844,-0.527344 -2.42579,-0.839844 -0.52343,-0.316406 -2.63281,-2.214843 -2.84375,-2.535156 -0.20703,-0.3125 -0.32031,-4.210937 -1.05078,-4.734375 -0.73437,-0.53125 -1.6914,-0.742188 -2.32031,-1.265625 -0.63672,-0.527344 -1.47656,-1.054687 -2.10547,-1.578125 -0.57031,-0.480469 -1.22656,-1.183594 -1.77344,-1.632812 0.0586,-1.390626 0.11719,-2.746094 0.17579,-4.046876 3.6914,-0.0078 7.27734,-0.195312 10.74609,-0.523437 0.77734,0.761719 1.5625,1.578125 2.12109,2.058594 0.91016,0.773437 1.97266,0.910156 2.10938,2.949219 0.13672,2.035156 0.77344,1.828124 1.75,1.828124 0.98437,0 1.7539,0.417969 1.96875,0.558594 0.20703,0.144532 -0.48828,0.777344 -0.69922,1.265625 -0.21094,0.492188 -0.98438,1.054688 -0.28516,2.175781 0.70313,1.125 -0.55468,1.828126 1.02344,1.613282 1.13281,-0.148438 1.80469,-0.984375 2.23047,-1.417969 0.17187,0.386719 0.35547,0.792969 0.53906,1.183594 -0.043,0.394531 -0.0898,0.8125 -0.14062,1.222656 -0.14063,1.191406 -1.29297,3.160156 0.1914,4.425781 1.49219,1.261719 1.77344,1.824219 2.96485,2.386719 0.22656,0.101563 0.39453,0.210937 0.5664,0.316406 1.42578,3.519531 2.81641,7.265625 4.16016,11.21875 -4.38281,0.652344 -8.9375,1.15625 -13.625,1.511719 z M 194.61328,64.167969 c 1.0625,-0.597657 2.1875,-1.402344 3.01563,-1.222657 0.83984,0.175782 0.60937,0.386719 1.21875,0.960938 -1.39844,0.113281 -2.8086,0.203125 -4.23438,0.261719 z m 23.52344,25.476562 c 0.78515,0.683594 0.89062,0.976563 2.03906,1.394531 1.33203,0.492188 0.83984,0.914063 1.60938,1.546876 0.77343,0.636718 1.33984,0.558593 2.53125,0.558593 1.19531,0 1.6875,1.128907 2.32031,1.261719 0.6289,0.144531 0.84765,0.355469 1.33203,0 0.49609,-0.347656 0.49609,0.496094 0.49609,-0.839844 0,-1.335937 0.28516,-0.558594 0,-2.105468 -0.28125,-1.546876 -1.33203,-5.480469 -2.32031,-7.234376 -0.98437,-1.753906 -0.49219,-1.683593 0.35547,-2.457031 0.83594,-0.773437 1.75,-0.558593 1.75,-1.894531 0,-1.339844 -0.77344,-1.617188 0,-3.375 0.30859,-0.703125 0.63672,-0.960938 0.89844,-1.183594 4.51172,4.949219 9.08984,10.433594 13.52734,16.550782 -6.57812,2.105468 -13.94531,3.839843 -21.90625,5.101562 -0.86328,-2.535156 -1.73828,-4.972656 -2.63281,-7.324219 z M 188.20703,64.253906 c -2.36328,-0.02344 -4.69141,-0.117187 -6.96875,-0.285156 -0.39453,-0.601562 1.77734,-0.34375 2.26953,-0.640625 0.53125,-0.316406 2.31641,0.3125 2.31641,0.3125 0,0 0.95312,0.210937 1.76172,0.105469 0.37109,-0.05078 0.47656,-0.0039 0.51172,0.05078 0.0391,-0.09766 0.0937,-0.269531 0.15234,-0.453125 -0.0117,0.3125 -0.0273,0.601562 -0.043,0.910156 z m -8.28125,-5.886718 c -0.71094,-0.390626 -1.11328,-0.710938 -1.59766,-0.71875 -0.60937,-0.0078 0.125,0.199218 -0.60937,-0.0078 -0.73828,-0.210937 -1.58203,0.0078 -1.58203,0.0078 -0.42188,0.523437 -0.21094,-0.109376 -0.42188,0.523437 -0.21093,0.632813 -0.21093,1.765625 0.21094,1.726563 0.42188,-0.04297 -0.21094,-0.359376 0.42188,-0.04297 0.63281,0.316406 0.10156,0.316406 0.63281,0.316406 0.52344,0 0.45703,-0.335937 0.86328,-0.273437 0.39844,0.05859 -0.44141,-0.464844 0.39844,0.05859 0.36718,0.230469 0.58203,0.335938 0.7539,0.410157 -0.46093,1.003906 -0.94531,2.089843 -1.42968,3.15625 -0.0156,-0.0078 -0.043,-0.02734 -0.043,-0.02734 0,0 -0.043,0.05469 -0.0937,0.121094 -0.21875,-0.02734 -0.44141,-0.04688 -0.65625,-0.06641 0,-0.02344 -0.008,-0.03516 0,-0.05469 0.10156,-1.222656 0.10156,-1.222656 0.10156,-1.222656 l -0.42188,-0.539063 c 0,0 -0.29687,-0.109375 -0.88281,0 -0.58984,0.121094 -1.42969,0.859375 -1.375,1.171875 0.0391,0.265625 0.36719,-0.0039 0.16406,0.328125 -0.6914,-0.09766 -1.39453,-0.191406 -2.07812,-0.296875 0.0234,-0.105469 0.0469,-0.199219 0.0664,-0.359375 0.10546,-0.933594 0,-1.96875 0,-1.96875 0,0 0.15234,-0.582031 0.55078,-1.371094 5.51562,-5.941406 10.08203,-10.492187 12.99218,-13.304687 -1.43359,2.863281 -3.50781,7.128906 -5.96484,12.433594 z M 195.625,139.92187 c 0.64062,-0.84375 1.48047,0.42579 3.6875,-1.15625 2.21484,-1.58203 0.84375,-0.63671 1.05469,-1.15625 0.21484,-0.53125 0,-0.63671 0,-1.15625 0,-0.53125 0.42187,-1.375 0.42187,-1.6914 0,-0.31641 0.63281,-0.73828 1.26172,-1.26172 0.62891,-0.52344 0.84375,-0.41797 1.79688,-0.84766 0.94531,-0.41797 1.36328,-0.83984 1.67578,-1.04297 0.32422,-0.21093 0.64062,-0.95312 2.64062,-2.21875 1.9961,-1.26171 0.10156,0.73829 -0.10937,1.26563 -0.20703,0.52734 -1.9961,1.99609 -1.6836,3.47656 0.31641,1.47266 0.52344,0.42188 1.6836,0.21094 1.15625,-0.21094 2.95312,-2.00391 3.26562,-2.53125 0.32031,-0.53125 2.95313,-2.52734 2.84766,-2.94531 -0.10547,-0.42188 -0.10547,-0.94922 -0.10547,-0.94922 0,0 -0.94531,-0.31641 -2.20703,-0.94922 -1.26953,-0.63281 0,0 -1.89844,-0.53125 -1.90234,-0.52734 0,0 -0.84375,-0.94531 -0.84375,-0.94531 0,0 -1.15625,-0.41797 -1.15625,-0.42188 0,0 0,-0.73828 0,-0.73828 1.05469,-0.53125 1.89453,-1.94141 0.84375,-1.41406 0.52735,-1.01172 0,-1.64453 -0.52734,-0.62891 -0.63672,-0.10156 -1.79687,-0.10156 -1.15625,0 -1.25391,0.10156 -3.04688,0.6289 -1.79297,0.53125 0,0 -0.73828,1.1211 -0.73828,1.11719 -0.52734,0.77734 -1.05469,1.20312 -0.52734,0.41797 -1.05468,0.73828 -3.05468,0.94922 -2.00391,0.20703 0,0 0.3125,-0.63672 0.3164,-0.63281 0,0 1.05468,-1.51562 1.05078,-1.52344 0.95313,-0.90625 1.47266,-1.64453 0.53516,-0.73828 1.58594,-0.94532 2.32422,-1.47657 0.73828,-0.52734 1.26172,-0.3125 2.3164,-0.52734 1.0586,-0.20703 3.27344,0 5.375,-0.10547 2.10157,-0.10156 1.79297,-0.3125 2.31641,-0.94531 0.52734,-0.63281 1.16016,-1.89844 1.375,-2.63672 0.21484,-0.73828 0.73828,-0.63281 0.94922,-0.94531 0.20703,-0.31641 1.36719,-1.3711 1.26172,-2.00391 -0.10938,-0.6289 -0.21094,-1.26172 -0.73828,-1.58203 -0.52735,-0.3125 -1.05078,-0.3125 -2.10547,-0.73437 -1.05078,-0.41797 -0.83985,-0.21485 -0.83985,-1.47657 0,-1.26172 0,0 -0.32031,-0.10547 -0.30859,-0.10546 -1.89453,-0.84375 -3.16015,-1.37109 -1.26172,-0.52734 -0.62891,-0.10547 -1.9961,-0.41797 -1.37109,-0.3164 -1.26953,-2.53125 -1.79687,-3.05859 -0.45313,-0.44922 -0.98438,-1.875 -1.58203,-3.01172 4.54296,-0.371095 8.98437,-0.875001 13.25,-1.519532 0.78125,2.347652 1.55468,4.757812 2.29687,7.257812 1.30078,4.37109 2.54297,9.09375 3.71484,14.12891 -0.39453,-0.40235 -0.45312,-0.38282 -0.82421,-0.78516 -0.46875,-0.52734 0.84375,-0.47266 -0.67969,-0.78906 -1.52735,-0.31641 -2.05469,-0.42188 -2.47266,-0.31641 -0.42578,0.10547 -0.6875,0.0547 -0.6875,0.0547 0,0 -0.15625,-0.0547 -0.37109,-0.26563 -0.21094,-0.20703 -0.47266,-0.73828 -0.47266,-1.15625 0,-0.41796 0,-0.94531 0,-1.26171 0,-0.3125 0.21094,-0.6875 -0.0547,-0.63282 -0.26171,0.0547 -0.52734,0 -0.52734,0 -0.84375,1.21094 -1.78906,1.73828 -1.74219,2.10547 0.0586,0.3711 -0.10547,0.94531 0,1.21094 0.11328,0.26562 0.0352,0.57812 -0.0391,1 -0.0625,0.42578 -0.27734,0.37109 -0.42578,1.16406 -0.16406,0.78906 -0.48047,1.3711 -0.48047,1.57813 0,0.21093 -0.21094,0.3164 0,0.89453 0.21094,0.57812 -1.42187,0.3164 0.21094,0.57812 1.63281,0.26563 1.10937,-0.10547 2.79297,0 1.68359,0.10547 1.21484,-0.16015 2.6875,-0.36718 1.47656,-0.21094 1.89453,-0.58204 2.21484,-0.53125 0.3125,0.0547 -0.37109,0.5625 -0.63281,0.99609 -0.26563,0.42969 0.67969,0.42969 1.37109,0.42969 0.49219,0 0.73828,0.21093 1.03906,0.17187 0.88672,4.12109 1.70313,8.45313 2.4336,12.98828 -10.55469,1.54688 -21.78516,2.4961 -33.41016,2.74219 0.0156,-0.0469 0.0273,-0.0664 0.0547,-0.10938 z m 32.33984,-17.02734 c 0.0352,-0.1289 0.004,-0.26172 -0.0937,-0.43359 -1.33984,-6.07031 -2.80468,-11.69141 -4.33203,-16.84766 -0.72265,-2.42969 -1.47265,-4.76562 -2.23047,-7.058592 8.10938,-1.308594 15.61719,-3.113282 22.32422,-5.3125 1.27735,1.785156 2.54297,3.574218 3.78125,5.457031 5.71094,8.660161 11.34375,18.847661 16.16406,30.554691 -9.75,3.28125 -20.88281,5.92187 -32.9375,7.78125 -0.80859,-4.96094 -1.70312,-9.67578 -2.67578,-14.14063 z m 16.39453,-31.562499 c -4.78906,-6.644531 -9.74609,-12.613281 -14.6289,-17.90625 -0.004,-0.128906 0,-0.226562 -0.004,-0.367187 -0.14844,-2.742188 0.49219,-1.757813 0.91016,-2.53125 0.42578,-0.773438 -0.69141,-1.898438 -1.82422,-2.597656 -1.125,-0.703126 -3.58594,-2.390626 -4.35547,-3.441407 -0.4375,-0.597656 -1.68359,-2.109375 -2.86719,-3.402343 2.33203,-0.832032 4.45703,-1.765626 6.35938,-2.78125 8.4414,4.976562 17.59375,11.355468 26.57812,19.519531 2.16407,1.96875 4.21875,3.980469 6.21875,6.015625 -4.5039,2.816406 -10.01562,5.34375 -16.38672,7.492187 z M 220.27344,59.746094 c -0.38282,-0.351563 -0.71875,-0.632813 -0.94141,-0.738282 -1.05078,-0.488281 -0.34766,0.773438 -2.10937,-1.265624 -1.75,-2.03125 -2.59375,-1.824219 -3.3711,-2.105469 -0.76953,-0.277344 -1.39844,-0.628907 -2.3164,-1.398438 -0.91407,-0.777343 -0.27735,-0.351562 -1.26563,-0.914062 -0.98437,-0.5625 -1.18359,-0.90625 -2.94531,-2.105469 -1.03906,-0.707031 -1.94141,-0.691406 -2.53125,-0.574219 -4.01563,-3.058593 -7.41016,-5.390625 -9.87891,-6.988281 0.46094,0.109375 1.01953,0.238281 1.53516,0.367188 5.72656,1.792968 16.76562,5.808593 29.78515,13.285156 -1.79687,0.875 -3.78125,1.699218 -5.96093,2.4375 z M 202.5625,51.074219 c -0.15234,-0.02734 -0.50391,-0.203125 -1.28125,-0.703125 -1.96875,-1.261719 -3.15625,-1.753906 -3.64844,-1.542969 -0.20312,0.08203 -0.40625,0.195313 -0.58984,0.292969 -1.09766,-1.539063 -2.10156,-2.898438 -2.95313,-3.992188 2.17188,1.410156 5.04688,3.378906 8.47266,5.945313 z m -13.75391,0.375 c -0.84765,0.152343 -2.14843,1.140625 -2.77343,1.449219 -0.5,0.253906 -1.23047,0.796874 -2.5586,1.84375 2.89063,-6.082032 4.96875,-10.160157 5.75781,-11.6875 -0.082,1.566406 -0.22656,4.425781 -0.42578,8.394531 z m -20.85156,10.691406 c -0.57031,-0.117187 -1.12109,-0.253906 -1.67578,-0.382813 0.0586,-0.05078 0.0859,-0.05469 0.16797,-0.117187 1.15625,-0.945313 0.73437,-0.273437 1.67969,-1.03125 0.94921,-0.753906 -0.52344,-0.125 0.94921,-0.757813 1.47657,-0.632812 1.47657,-0.632812 1.47657,-0.632812 V 58.0625 l -1.67188,0.105469 c -0.12109,0.207031 0.61719,-1.265625 -1.17187,0 -1.79297,1.261719 -2.53125,1.050781 -2.74219,1.367187 -0.21094,0.320313 -0.94531,1.074219 -0.94531,1.074219 0,0 -1.15625,-0.71875 -1.05078,0 0.0156,0.144531 0.0234,0.234375 0.0273,0.328125 -1.48047,-0.40625 -2.87891,-0.847656 -4.23047,-1.316406 11.07813,-7.074219 20.33594,-11.972656 25.625,-14.59375 -3.58594,3.480468 -9.42187,9.347656 -16.4375,17.113281 z m -1.65234,1.460937 c -0.15625,0.15625 -0.23438,0.3125 -0.49219,0.675782 -0.52734,0.738281 -1.89844,0.527344 -0.52734,0.738281 0.0312,0.0039 0.0547,0.01172 0.0859,0.01563 -0.77343,0.875 -1.53515,1.726562 -2.32812,2.640625 -0.11328,-0.09375 -0.17969,-0.25 -0.17969,-0.546875 0,-1.371094 -0.63672,-0.210938 0,-1.371094 0.63281,-1.160156 1.15625,-2.109375 0.73828,-2.214844 -0.42187,-0.105468 -1.6875,0 -1.6875,0 -0.94531,0.214844 -2.84375,0.214844 -4,1.160157 -1.16406,0.949219 -1.37109,0.84375 -2.10937,1.792969 -0.73828,0.945312 -1.15625,0.945312 -1.3711,1.261718 -0.21093,0.316406 -1.47265,0.917969 -0.84375,1.144532 0.63282,0.222656 0.84375,-0.332032 1.58203,0 0.74219,0.328124 1.375,1.066406 1.375,1.066406 0,0 0,0.421875 0.10547,0.84375 0.0977,0.417968 -1.26953,1.476562 -1.16015,1.789062 0.10156,0.316406 -0.31641,1.160156 0,1.792969 0.30078,0.609375 -0.14063,0.464844 0.76562,1.289063 -0.60547,0.734374 -1.20312,1.460937 -1.82031,2.210937 -0.24609,0.0078 -0.33984,-0.0039 -0.52734,-0.128906 -0.31641,-0.210938 -0.31641,-0.949219 -0.31641,-0.949219 0,0 0.94922,-0.632812 0.94922,-0.945312 0,-0.316407 -0.10547,-0.738282 -0.10547,-0.738282 l -0.73828,-0.949218 c 0,0 -1.15625,-1.15625 -1.32031,-1.472657 -0.16797,-0.320312 -0.9961,-0.535156 -0.9961,-0.535156 0,0 -0.21484,-1.257813 -0.21484,-2.316406 0,-1.050781 -1.05078,-0.839844 -1.05078,-0.839844 0,0 -0.83985,0 -1.57813,0 -0.74219,0 -1.16015,0.3125 -1.6875,0.417969 -0.49609,0.101562 -1.11719,0.01172 -2.48437,0.0039 4.3125,-3.136719 8.51953,-6.011719 12.5,-8.605469 2.85547,1.074219 6,2.015625 9.4375,2.769531 z m -23.27344,6.824219 c 0.0234,-0.02344 0.0469,-0.03906 0.0742,-0.05859 -0.0312,0.01953 -0.0391,0.03516 -0.0742,0.05859 z m 44.55469,147.992189 c -0.30078,0.11328 -0.42188,0.3125 -0.58594,0.5 -0.0469,-2.82422 -0.082,-5.66406 -0.11719,-8.50781 0.0586,0.17968 0.0977,0.3164 0.0977,0.3164 l 1.05859,0.51953 c 0.004,0 0.10938,6.95703 -0.45312,7.17188 z m 2.01953,-37.48828 c -0.19531,0 -0.37891,0 -0.57422,-0.008 -0.0508,-0.0391 -0.0898,-0.0781 -0.14844,-0.11718 -0.6289,-0.52735 -0.19922,-1.05078 -1.67969,-0.94922 -0.17968,0.0156 -0.26562,0.0273 -0.39843,0.043 0.0469,-8.41407 0.14062,-16.8125 0.27343,-25.06641 0.39454,-0.28906 0.76954,-0.57422 1.27735,-0.89453 0.83984,-0.52734 0,0 1.10937,-1.26172 1.10157,-1.26562 -0.0586,-1.05469 0,-1.89844 0.0469,-0.83984 0.57813,-4.53125 1.21094,-4.21093 0.63281,0.3125 0,0 1.37109,0.10156 1.3711,0.10156 0,0 0.53125,-1.16016 0.52344,-1.16015 1.15625,-1.26172 1.36719,-1.78906 0.20703,-0.52344 0.41797,-1.05078 0.73438,-1.98438 12.09375,-0.20703 23.69922,-1.14843 34.5664,-2.70703 1.82032,11.6836 3.07032,24.71485 3.40625,39.09375 -13.58203,1.82813 -28.07031,2.8086 -43.04687,2.8086 z m 41.30469,-42.14844 c 12.24609,-1.84766 23.48828,-4.50781 33.34375,-7.81641 4.48828,11.23047 8.21093,23.83985 10.5625,37.84375 -11.98047,3.91407 -25.66016,7 -40.48438,9.08203 -0.34375,-14.375 -1.59766,-27.41015 -3.42187,-39.10937 z m -2.89063,-82.398438 c -6.29687,-3.664062 -12.12891,-6.511718 -17.21484,-8.726562 6.36328,1.722656 13.58984,3.828125 20.89843,6.25 -1.07031,0.863281 -2.28906,1.699219 -3.68359,2.476562 z M 185.31641,42.699219 c -5.0625,2.449219 -15.67188,7.894531 -28.5586,16.210937 -3.22265,-1.253906 -5.97656,-2.683594 -8.16797,-4.238281 15.73047,-6.773437 28.74219,-10.433594 34.66797,-11.921875 0.6875,-0.01563 1.3711,-0.03906 2.0586,-0.05078 z m -30.3711,17.402343 c -4.16406,2.726563 -8.51562,5.71875 -13.0039,9.023438 -0.004,-0.175781 0.0156,-0.347656 -0.0469,-0.53125 -0.21094,-0.632812 -0.41797,-1.371094 -0.73828,-1.894531 -0.31641,-0.53125 -0.41797,-1.261719 -0.63281,-2 -0.21094,-0.738281 -0.10547,-0.738281 -0.53125,-1.476563 -0.41797,-0.738281 -1.15625,-1.476562 -1.3711,-2.109375 -0.20703,-0.632812 -0.41797,-0.632812 -1.04687,-0.527343 -0.62891,0.109374 -0.63281,-0.105469 -1.16406,0.109374 -0.26954,0.105469 -0.41016,0.01953 -0.67969,-0.04687 C 139.5,58.75 143.1875,57.03125 146.75,55.464844 c 2.17187,1.71875 4.93359,3.273437 8.19531,4.636718 z m -28.64062,5.652344 c -0.31641,0.417969 -0.53125,0.417969 -0.95313,0.632813 -0.10156,0.05078 -0.17968,0.03516 -0.24218,-0.02734 0.41406,-0.234375 0.82031,-0.453125 1.23828,-0.6875 -0.0195,0.02734 -0.0195,0.04687 -0.043,0.08203 z m -10.00781,13.695313 c 0.3125,0 -0.42188,0.523437 -0.95313,0.765625 -0.35547,0.167968 -0.46875,0.726562 -0.53516,1.203125 -0.38671,-0.292969 -0.76171,-0.574219 -1.11718,-0.867188 0.71875,-0.339843 2.35547,-1.101562 2.60547,-1.101562 z m 0.52343,2.527343 c 0.31641,0 1.26172,-0.527343 1.26172,-0.527343 0,0 1.26563,-0.527344 1.375,-1.15625 0.10547,-0.628907 0.41797,2.945312 0.41797,2.945312 0,0 0.18359,0.929688 0.27734,1.714844 -1.58984,-0.910156 -3.07031,-1.855469 -4.42187,-2.832031 0.46094,-0.05859 0.94531,-0.144532 1.08984,-0.144532 z m 4.53907,6.25 c 0.21093,0.628907 0.51562,1.554688 0.41406,1.96875 -0.10938,0.421876 -0.21094,0.949219 -0.53516,1.375 -0.30859,0.417969 -0.30859,2.949219 -0.73437,3.371094 -0.41797,0.417969 0,1.050782 -0.3125,2.316406 -0.31641,1.265626 0.3125,1.585938 0.3125,1.585938 l -0.3125,1.57813 c 0,0 -0.52735,1.79296 -0.84375,2.42578 -0.3125,0.63281 -0.52735,1.36718 -0.52735,1.36718 0,0 0.3125,2.10938 -0.41797,2.74219 -0.73828,0.63281 0,0 -0.32031,0.31641 -0.3125,0.3125 -0.41797,1.25781 -0.6289,2 -0.20704,0.73828 0.94921,2.3164 1.05468,2.84375 0.10157,0.52734 0.10157,1.05078 0,1.47656 -0.10547,0.42188 0.41797,1.58203 0.10157,2.32031 -0.3125,0.73828 -1.26563,4.42578 -1.79297,5.47657 -0.52344,1.05468 -1.6836,2.63281 -2.42188,3.6875 -0.6914,0.99218 -0.85547,1.55859 -1.83984,3.29296 -7.26172,-2.60937 -13.64844,-5.58203 -18.99219,-8.86718 7.20703,-10.1836 15.19141,-19.14453 23.0625,-26.812504 1.57422,-1.53125 3.15234,-3.011718 4.73438,-4.464844 z m -8.10157,57.160158 c 0.40235,0.27734 0.51172,0.47265 1.2461,1.28125 0.94531,1.05469 0.94531,6.84375 1.15625,7.90234 0.21093,1.05078 1.58593,1.6836 1.58593,1.6836 0,0 0.0977,0.73828 0,1.26562 -0.10937,0.52344 0,1.47266 -0.41015,1.89453 -0.41406,0.42188 0.0859,0.63672 0.0859,0.63672 0,0 -0.21094,0.52344 0,0.94531 0.21484,0.42188 0,0.94532 0,0.94532 0,0 1.05078,0.74218 1.6875,1.05859 0.63671,0.3125 1.15625,0.63281 1.05468,0.94531 -0.10547,0.3125 0.21094,2.73828 0.3125,3.58203 0.10547,0.84375 0.42578,0.84375 0.42578,1.26172 0,0.42188 1.15625,2.10547 1.15625,2.42578 0,0.31641 0.94532,0.83985 0.94532,0.83985 h 0.52734 c 0,0 0.21094,-1.3711 0.21094,-1.6836 0,-0.3164 0,-0.94531 0,-0.94531 0,0 -0.21094,-0.53125 -0.73828,-0.94922 -0.52735,-0.41797 -0.73438,-1.6914 -0.73438,-1.6914 0,0 0,-1.46875 -0.21094,-1.78516 -0.21484,-0.31641 -0.73828,-2.63281 -0.73828,-2.63281 L 120.5,160.57422 c 0,0 -0.52734,-1.79297 -0.62891,-2.10547 -0.10546,-0.32031 -0.10546,-0.73828 -0.3164,-1.15625 -0.21094,-0.42578 -0.10547,-1.58594 -0.10547,-1.58594 l -0.83984,-2.84765 c 0,0 1.47265,-0.41407 2.32812,0 0.85547,0.42578 0.93359,2.53515 0.0937,3.80078 -0.84375,1.26172 4.3125,6.74218 4.3125,6.74218 0,0 0.11328,1.16016 0.004,1.89844 -0.10547,0.73438 1.05468,0.94531 1.05468,1.67969 0,0.73828 3.57813,6.53906 4.10938,8.11328 0.0352,0.11719 0.0312,0.23438 0.0586,0.33984 -9.4414,-1.84765 -18.28515,-4.12109 -26.34765,-6.76953 2.50781,-7.9414 5.57031,-15.72656 9.03515,-23.29687 z m 17.42969,31.76953 c -0.0586,0.99609 -0.23438,2.08984 -0.17188,3.43359 0.10157,2.32422 2.42579,3.69141 2.42579,3.69141 l 2.52734,1.78906 2.10937,0.73438 c 0,0 0.56641,0.32031 1.44922,0.77734 -1.70312,11.95313 -2.67578,24.16016 -2.57812,36.19141 -14.46875,-2.41407 -27.76953,-5.79297 -39.332032,-9.94141 -0.03516,-1.89844 -0.03125,-3.82031 0.03516,-5.75 0.394531,-12.78125 2.816406,-25.47656 6.597652,-37.84375 8.24609,2.71875 17.29688,5.03906 26.9375,6.91797 z m 9.91797,11.24609 c 2.625,1.32032 6.28125,3.03907 8.24219,3.35547 3.26562,0.53125 4.63671,-0.73437 6.10937,0 1.48047,0.73828 3.89844,3.375 5.27344,4.84766 1.37109,1.47656 1.26172,0.52734 2.10547,1.05078 0.83984,0.52344 1.15625,0.10547 3.05468,0.64062 1.89063,0.51954 3.78907,4.20704 3.78907,5.05079 0,0.83984 0.6289,1.58593 1.37109,2.84375 0.73828,1.26562 1.26172,0 2.42188,0 1.16406,0 1.89843,2.85156 2.42968,2.73828 0.52344,-0.0977 2.21094,-0.0977 2.21094,-0.0977 0,0 1.78906,1.05078 2.63281,1.89453 l 1.3711,-1.26172 1.47265,-1.16406 1.26563,-0.52734 c 0,0 0.39453,0.16406 0.82422,0.35156 0.0391,3.92187 0.0937,7.82031 0.16015,11.6875 -0.6914,0.50781 -1.46093,1.21484 -1.92968,1.55469 -0.74219,0.53125 -1.26954,3.26562 -2.10938,5.05859 -0.22656,0.48047 -0.37891,1 -0.49219,1.51563 -14.88281,-0.38672 -29.26562,-1.71485 -42.67187,-3.87891 -0.11719,-11.84766 0.8164,-23.87109 2.46875,-35.66016 z m 39.98437,41.22266 c -0.0352,0.60156 -0.0352,1.10156 -0.0352,1.21875 0,0.31641 0.85156,1.16406 0.85156,2.01172 0,0.82812 0,0 -0.42578,0.10156 -0.42188,0.10156 -1.05078,1.68359 -1.47266,2.20703 -0.41797,0.52735 0,2.42578 0,3.05469 0,0.62891 0.83985,1.47656 1.79297,1.79687 0.6875,0.22657 3.14063,1.53125 4.64844,2.55079 0.30078,8.14062 0.67969,15.98046 1.17578,23.40625 -15.29297,-0.11719 -30.14844,-1.25782 -44.05469,-3.3125 -3.1875,-11.67969 -4.67969,-24.10938 -4.92578,-36.78125 13.29297,2.08203 27.57422,3.37109 42.44531,3.74609 z m 7.10157,14.76562 c 0.60937,0.96875 1.32812,2.21875 1.71484,2.6875 0.51562,0.625 0.42969,1.89063 0.0586,2.52735 -0.375,0.6289 1.00391,0.83984 1.31641,1.68359 0.3125,0.83985 0.83984,0.73438 1.05078,1.26563 0.21094,0.52734 1.05078,1.26172 1.58203,2.10547 0.52735,0.83984 3.15625,1.89062 4.53125,2.0039 1.36719,0.10156 5.3711,1.05078 5.79297,2.32422 0.15234,0.46094 -0.008,3.27344 -0.33203,6.71094 -4.55469,0.1914 -9.15234,0.30078 -13.80078,0.30078 -0.26172,0 -0.52735,-0.004 -0.79688,-0.004 -0.45312,-6.87109 -0.82031,-14.10937 -1.11718,-21.60547 z m 1.91406,23.30079 c 4.59375,0 9.13281,-0.125 13.63281,-0.29688 -0.59375,5.55859 -1.51953,11.95703 -2.23437,12.86328 -1.19922,1.5 -1.54688,1.125 -3.82422,10.92578 -2.01172,0.0547 -4.03125,0.1211 -6.03125,0.12891 -0.89453,-7.15234 -1.63282,-15.09766 -2.22266,-23.63672 0.22656,0.004 0.45703,0.0156 0.67969,0.0156 z m 26.78125,21.52734 c 0.20312,-0.32422 1.89453,-0.42188 2.3164,-0.52734 0,0 0.0156,-0.004 0.0273,-0.0117 -0.0781,0.27734 -0.15235,0.55468 -0.22266,0.82812 -0.77344,0.10156 -1.53125,0.16406 -2.30469,0.25391 0.0703,-0.26563 0.13672,-0.48047 0.1836,-0.54297 z m 36.26953,-67.13672 c -1.27344,-0.38672 -1.31641,-0.29687 -2.03125,-0.39844 -0.73828,-0.10547 -1.89453,-0.21093 -3.6875,-0.94922 -1.79297,-0.73828 -3.47656,0.21094 -3.47656,0.21094 l 1.89453,-1.6914 c 0,0 0.10547,-1.3711 -0.94531,-3.26172 -1.3711,-6.42969 -9.59375,-5.90625 -10.22657,-5.90625 -0.1875,0 -0.39062,0.008 -0.60156,-0.004 0.73828,-10.74609 0.98047,-20.93359 0.79297,-30.50781 14.87891,-2.08985 28.64062,-5.19531 40.71875,-9.13672 2.18359,13.76953 3.00781,28.88281 1.94531,45.3125 -7.51953,2.44141 -15.6914,4.57031 -24.38281,6.33203 z m 24.0625,-52.17578 c 6.18359,-2.08203 11.88672,-4.38281 17.0625,-6.88281 0.30859,2.34765 0.89062,4.51172 2.04297,5.87109 2.84765,3.375 2.84765,3.16406 2.73437,5.80078 -0.10156,2.62891 -0.10156,4.20703 0.53125,4.63281 0.63282,0.42188 2.00391,2.95313 2.63282,3.79297 0.63281,0.83594 0.53125,1.78907 1.47656,3.05078 0.91015,1.21485 0.21875,1.75782 3.6914,2.73047 0.41407,4.29688 0.70313,8.54688 0.87891,12.73438 -7.79687,5.17187 -17.62109,9.72656 -28.99219,13.54687 1.00782,-16.41015 0.14844,-31.50781 -2.05859,-45.27734 z m 29.95703,-51.05469 c 0,0 -2.42969,-1.47656 -2.85156,-0.94531 -0.41797,0.52734 -2.73047,3.36719 -2.73047,3.36719 0,0 -0.94922,3.16406 -1.16406,3.48047 -0.20703,0.3164 -4.63672,3.89843 -4.84766,4.21484 -0.18359,0.29297 -0.54297,1.19531 -0.6875,2.30469 -0.79297,-1.85547 -1.61719,-3.67578 -2.45312,-5.45703 0.13281,0 0.25,-0.0195 0.40625,-0.004 1.375,0.10156 3.26953,-0.0937 3.58593,0.16406 0.3125,0.25782 1.26563,-0.16406 2.21094,-1.32422 0.94922,-1.15625 0.53125,-1.89843 0,-3.6875 -0.53516,-1.78906 -1.57812,-2.74218 -1.79297,-4.11328 -0.15625,-1.01172 -0.48047,-1.45312 -0.68359,-2.76953 2.23437,-2.07031 4.10937,-4.22656 5.60937,-6.44922 2.15235,3.64063 4.14453,7.39453 5.94141,11.25 z M 244.96875,56.875 c -3.29297,-1.285156 -6.67188,-2.515625 -10.07422,-3.675781 0.40234,-0.4375 0.73828,-0.890625 1.0625,-1.339844 2.70313,1.066406 5.37891,2.207031 8.00391,3.453125 0.24218,0.507812 0.60547,1.058594 1.00781,1.5625 z M 233.125,52.605469 c -12.14844,-4.074219 -24.23828,-7.285157 -32.45703,-9.3125 11.73828,1.164062 23.02734,3.882812 33.66797,7.929687 -0.35547,0.46875 -0.75391,0.933594 -1.21094,1.382813 z M 175.11719,43.25 c -7.05469,2.089844 -16.88282,5.398438 -28.01953,10.242188 -1.28907,-1.101563 -2.3086,-2.257813 -3.00391,-3.457032 9.86719,-3.453125 20.25781,-5.773437 31.02344,-6.785156 z m -65.14453,32.699219 c -0.0703,0.269531 -0.13672,0.523437 -0.17969,0.777343 -0.11719,-0.136718 -0.24609,-0.273437 -0.35547,-0.414062 0.17188,-0.128906 0.35547,-0.238281 0.53516,-0.363281 z m -0.67188,2.59375 c -0.10937,0.546875 0.10547,0.796875 -0.0664,1.644531 -0.21094,1.054688 0,0 -0.63282,0.316406 -0.15234,0.07031 -0.22656,0.109375 -0.26562,0.128906 0,0 -0.0195,0.01172 -0.0234,0.01563 -0.0156,0.0078 -0.043,0.01953 -0.13672,0.0625 -0.41797,0.210937 -0.625,0.632812 -1.04297,0.632812 -0.42578,0 -1.48437,0.632812 -1.48437,0.632812 0,0 -0.94531,0.53125 -1.57813,0.53125 -0.63281,0 -0.52734,0.527344 -1.26172,0.632813 -0.73437,0.101563 -0.94921,0.101563 -1.58203,0.101563 -0.63281,0 0,1.058593 0,1.058593 0,0 2.21094,0.203125 3.05078,0.101563 0.84766,-0.101563 1.16407,-0.207032 1.79297,-0.421875 0.63282,-0.207031 1.89844,-0.207031 2.42969,-0.527344 0.51953,-0.3125 1.78906,-1.050781 1.78906,-1.050781 0,0 1.57813,-0.316406 1.9961,-0.421875 0.16406,-0.04297 0.28906,-0.160157 0.38672,-0.292969 2.20703,1.808594 4.79687,3.527344 7.71875,5.136719 -1.64454,1.507812 -3.27735,3.039062 -4.90625,4.617187 -7.96485,7.765625 -16.050786,16.83203 -23.347661,27.14843 -6.445313,-4.16406 -11.207031,-8.79296 -13.945313,-13.7539 8.984375,-10.83203 19.316406,-19.964842 29.980474,-27.601561 0.35546,0.4375 0.73046,0.875 1.1289,1.308594 z M 92.664062,120.78516 c 5.414063,3.32422 11.835938,6.35156 19.117188,8.99609 -0.45312,0.90625 -0.34766,0.97656 -0.34766,0.97656 0,0 0.32813,4.21875 0.1211,5.90625 -0.21094,1.6836 -0.10547,5.57813 0,6.85156 0.0469,0.53907 0.14062,0.78516 0.29297,0.96094 -3.53516,7.69531 -6.67188,15.60156 -9.22657,23.67578 -10.980465,-3.72656 -20.453121,-8.14453 -27.93359,-13.11718 4.601562,-12.59375 10.875,-24.02735 17.976562,-34.25 z m 4.523438,95.07812 c 11.56641,4.08984 24.82422,7.38672 39.27734,9.74609 0.23047,12.63672 1.6836,25.06641 4.80469,36.77735 -12.98047,-2.00781 -25.08984,-4.78906 -35.88281,-8.26953 C 100.37109,242.03125 97.648438,229.25 97.1875,215.86328 Z m 46.40234,48.57813 c 13.80469,2 28.52344,3.10937 43.65235,3.20703 0.58593,8.54687 1.3164,16.51172 2.20703,23.6875 -12.61719,-0.0469 -24.54688,-1.12891 -35.44531,-2.76953 -4.51954,-7.48829 -7.9375,-15.58985 -10.41407,-24.125 z m 53.20313,28.43359 c -0.004,0.0117 -0.004,0.0234 -0.0117,0.0352 -2.63281,11.58203 0,13.375 0,13.375 0,0 1.69141,-0.21485 2.00391,-0.52735 0.3164,-0.3125 2.32421,-0.3125 2.84765,-0.64062 0.52735,-0.30469 0.52735,-0.41797 0.84375,-0.9375 0.3086,-0.52735 0.73438,-0.94532 0.73438,-0.94532 0,0 1.26953,-1.26953 1.6875,-1.90234 0.41797,-0.62891 1.05078,-1.05078 1.26562,-1.68359 0.20703,-0.63282 0,-0.73828 0,-0.73828 0,0 0.41797,-1.15625 0.52735,-1.57813 0.10546,-0.42578 0.73828,-0.21484 1.26171,-0.42578 0.52344,-0.21094 1.15625,-0.52734 1.3711,-0.94922 0.21094,-0.41797 0.52734,-1.46875 0.52734,-2.09766 0,-0.63671 0.84375,-0.94921 1.47266,-1.26953 0.63281,-0.3164 1.37109,0.52735 2.84765,0.41797 0.64454,-0.043 1.10157,-0.71484 1.42969,-1.48828 0.81641,-0.0898 1.6211,-0.16406 2.4375,-0.25781 -1.10937,4.17969 -2.29687,8.41797 -3.55469,12.71484 -6.78906,1.41016 -13.78125,2.28906 -20.91015,2.60938 -0.82813,-4.07813 -1.55469,-8.62891 -2.20703,-13.58985 1.79687,-0.004 3.60937,-0.0664 5.42578,-0.12109 z m 23.04297,-1.80859 c 14.77734,-1.91797 29.89453,-5.29688 45.19922,-10 0.004,0 0.0117,0.004 0.0234,0.004 0.17578,0 0.35157,-0.0586 0.49219,-0.16015 0.22656,-0.0742 0.45313,-0.14844 0.67969,-0.21485 -14.60547,10.86328 -31.52735,18.75781 -49.86719,22.84766 1.21875,-4.21094 2.38672,-8.37891 3.47266,-12.47656 z m 0.47656,-1.77735 c 0.0781,-0.32031 0.15234,-0.6289 0.22656,-0.9414 0.45313,-0.0742 0.90235,-0.14454 1.21485,-0.1836 0.84765,-0.10547 1.16015,-0.63672 2.3164,-1.05469 1.16016,-0.41406 0.84766,-0.41406 2.32422,-1.68359 1.47656,-1.26562 -3.57812,-3.58203 -2.32422,-4.63672 1.26953,-1.05078 0.21485,0.52735 1.48047,1.375 1.26172,0.83594 0.84375,0.20313 1.90234,0.20313 1.05079,0 1.14844,-0.10547 2.41797,-0.42188 1.26172,-0.30859 1.26172,0 2.32032,-0.63281 1.05078,-0.62891 0,0 1.47656,-1.15625 1.47265,-1.16016 0.63672,-0.52344 1.89062,-1.79297 1.26953,-1.26172 0.95313,-0.94922 2.21485,-2.73828 1.26562,-1.79297 0.94531,-1.47266 5.16406,-4 4.21484,-2.52734 0.63281,-1.68359 0.41797,-3.375 -0.20703,-1.68359 0.32031,-1.15625 1.05859,-2.62891 0.46875,-0.95703 4.80469,-2.71484 8.59766,-4.23047 6.20703,-1.32031 12.13672,-2.82812 17.75781,-4.52343 -1.73828,7.33593 -3.84766,14.875 -6.36328,22.63281 -14.93359,4.57422 -29.67188,7.87109 -44.09375,9.78906 z m 38.90625,-31.03515 c -0.0859,-0.20704 -0.0625,-0.57813 0.46875,-1.375 1.57812,-2.42969 2.52734,-2.95313 2.83984,-3.6875 0.32032,-0.75 1.48047,-2.11329 1.79297,-3.27344 0.31641,-1.16016 0.42188,-0.73828 0.31641,-1.47266 -0.10547,-0.74219 -0.73828,-5.3789 0.41797,-7.58984 1.15625,-2.20703 2.74218,-2.94531 4.11328,-5.0586 1.36719,-2.11328 1.36719,-1.6875 2.42187,-2.83984 1.05078,-1.15625 1.57813,-2.53516 1.78907,-3.79687 0.20703,-1.26172 0,-2.41797 -0.83594,-3.26172 -0.84766,-0.85157 -1.375,0 -2.53125,-1.05078 -1.15625,-1.0586 -1.69531,-1.16016 -4.42969,-1.69532 -2.73437,-0.52343 -1.78906,0.63672 -4.73828,0.42188 -2.94531,-0.21485 -1.36719,0.42187 -3.375,0.21484 -1.82813,-0.1875 -0.33203,-0.0469 -0.625,-0.89844 7.07812,-1.55078 13.79297,-3.34375 20.07031,-5.35156 -0.85547,11.79688 -2.6875,24.26563 -5.71484,37.4375 -3.84766,1.17578 -7.84375,2.27344 -11.98047,3.27735 z m 50.28516,-55.79688 c 3.15625,-2.14062 5.98046,-4.39453 8.4375,-6.73437 -1.69532,10.53125 -4.625,20.66406 -8.66407,30.21875 0.44141,-8.1836 0.49219,-15.9961 0.22657,-23.48438 z m -0.0859,-1.96094 c -0.16016,-3.74218 -0.39453,-7.40625 -0.71875,-10.96875 2.09765,1.00782 1.04297,2.07422 3.55859,0.54688 2.94531,-1.78906 4.63281,-4 6.11328,-5.90235 0.375,-0.48828 0.69922,-0.95703 0.99219,-1.39843 -0.20703,3.42187 -0.55078,6.80859 -1.02344,10.16406 -2.51172,2.63672 -5.5,5.15234 -8.92187,7.55859 z M 104.92188,71.824219 c 0.53906,1.386719 1.30078,2.746093 2.23828,4.070312 -10.574222,7.578125 -20.835941,16.609375 -29.796879,27.300779 -0.105469,-0.21875 -0.195312,-0.4375 -0.285156,-0.65625 7.625,-11.640622 17.035156,-22.011716 27.843755,-30.714841 z M 59.390625,143.0625 c 3.113281,4.46484 7.597656,8.67578 13.269531,12.5625 -4.484375,12.62109 -7.273437,26.38281 -7.535156,41.23828 -3.761719,-3.13672 -6.792969,-6.44141 -8.992188,-9.89062 -0.378906,-4.04297 -0.59375,-8.13672 -0.59375,-12.27735 0,-10.90234 1.351563,-21.49219 3.851563,-31.63281 z m 14.214844,98.17187 c 8.140625,5.5 18.503906,10.30079 30.519531,14.22657 3.72656,8.8164 8.63281,17.28515 14.73047,25.35937 -5.88672,-1.71875 -10.89844,-3.41797 -14.86719,-4.85937 -0.30078,-0.10157 -0.57812,0.008 -0.80078,0.1914 -11.773438,-9.80468 -21.796875,-21.63281 -29.582031,-34.91797 z m 93.386721,63.88282 c -4.55469,-4.51953 -8.5,-9.42578 -11.85157,-14.67578 10.66407,1.54296 22.27735,2.55078 34.53125,2.57812 0.64454,4.96484 1.375,9.51953 2.1875,13.61328 -1.42187,0.0391 -2.83984,0.10547 -4.27343,0.10547 -7.00391,0 -13.88282,-0.55859 -20.59375,-1.62109 z m 102.99609,-27.35938 c -1.21484,0.39844 -2.42187,0.75 -3.63672,1.13281 2.47266,-7.74609 4.57031,-15.28906 6.28125,-22.60937 9.94922,-3.11328 18.89063,-6.79297 26.46485,-11.00391 -7.86329,12.3711 -17.70704,23.35157 -29.10938,32.48047 z m 0,0"
           fill-opacity="1"
           fill-rule="nonzero"
           id="map-7"
           class="map"
           inkscape:label="map7"
           style="fill:#fff5ff;fill-opacity:1" />
      </g>
      <path
         fill="#000000"
         d="m 196.99609,186.07422 c -0.10547,0.41797 -1.68359,0.3125 -2.10156,1.05078 -0.42578,0.73437 -1.16016,1.375 0,1.47266 1.15625,0.10546 1.78906,-0.0977 3.05078,0 1.26563,0.10546 0,0.26953 1.6836,0.0352 1.68359,-0.24219 0.95312,0.28516 2.63671,-0.44531 1.6836,-0.74219 2.74219,-0.84766 3.6836,-0.84766 0.94531,0 0.94531,-0.89843 1.375,-0.61328 0.41797,0.29688 0.73047,1.07813 0.73047,0 0,-1.07422 -0.0977,-1.47265 -1.89063,-1.48437 -1.79297,-0.0117 -2.3164,0.0117 -2.94922,0 -0.63672,-0.0117 -2.05078,0 -2.05078,0 l -1.53125,-0.53907 c -2.10937,0.10157 -2.63672,0.53907 -2.63672,0.53907 0,0 0.95313,0.72656 1.31641,0.83203 0.37109,0.10156 -1.21094,-0.42578 -1.31641,0 z m 0,0"
         fill-opacity="1"
         fill-rule="nonzero"
         id="map-6"
         class="map"
         inkscape:label="map-6"
         style="fill:#fff5ff;fill-opacity:1" />
      <path
         fill="#000000"
         d="m 211.83203,188.32422 c 0.96875,-0.0391 0.44141,0.17578 0.96875,-0.0391 0.52734,-0.21485 -0.10937,0.30859 0.52344,-0.21485 0.63672,-0.52344 0.63672,-0.52734 0.63672,-0.52734 0,0 0.21093,-0.41797 0.52343,-0.41797 0.32032,0 0.32032,-0.79688 0,-0.40234 -0.30859,0.40234 -1.88671,0 -1.88671,0 -0.74219,0.082 -1.375,0.1875 -1.47266,0.40234 -0.11328,0.21484 0,0.21484 0,0.63281 -0.004,0.42578 -0.26953,0.60156 0.70703,0.56641 z m 0,0"
         fill-opacity="1"
         fill-rule="nonzero"
         id="map-5"
         class="map"
         inkscape:label="map-5"
         style="fill:#fff5ff;fill-opacity:1" />
      <path
         fill="#000000"
         d="m 245.59766,75.585938 c -1.1875,-0.140626 -1.25782,-0.351563 -1.82422,-0.84375 -0.57032,-0.492188 -1.21485,-0.632813 -1.44922,-0.632813 -0.23828,0 -0.58985,0 -0.58985,0 -0.49218,0.699219 -0.70312,1.195313 -0.77343,1.40625 -0.0703,0.207031 -0.91016,0.769531 -0.91016,0.769531 0,0 -0.0703,-0.06641 -0.5625,0 -0.48828,0.07031 -1.53906,-1.261718 -1.82422,0 -0.28906,1.261719 -0.69922,1.125 0,1.972656 0.69531,0.84375 2.39453,1.757813 3.16016,2.246094 0.77344,0.492188 0.55859,0.984375 2.32422,1.191406 1.7539,0.210938 1.05078,1.058594 2.44922,-0.417968 1.40625,-1.476563 1.19531,-0.351563 1.48046,-2.175782 0.28125,-1.832031 0.48438,-1.609374 0,-2.394531 -0.49218,-0.769531 -0.28515,-0.980469 -1.48046,-1.121093 z m 0,0"
         fill-opacity="1"
         fill-rule="nonzero"
         id="map-4"
         class="map"
         inkscape:label="map-4"
         style="fill:#fff5ff;fill-opacity:1" />
      <path
         fill="#000000"
         d="m 170.29687,72.71875 c -0.0352,0.05078 -0.0312,0.06641 0,0 z m 0,0"
         fill-opacity="1"
         fill-rule="nonzero"
         id="map-3"
         class="map"
         inkscape:label="map-3"
         style="fill:#fff5ff;fill-opacity:1" />
      <path
         fill="#000000"
         d="m 170.34375,72.386719 c 0,0.179687 -0.0234,0.273437 -0.0469,0.332031 0.0469,-0.08594 0.19922,-0.234375 0.67579,-0.332031 1.05078,-0.210938 0.52734,0.210937 1.05078,-0.210938 0.52734,-0.417969 -0.3125,0 0.52734,-0.417969 0.84375,-0.417968 0.63281,0.417969 0.84375,-0.417968 0.21094,-0.84375 -0.3125,-0.113282 0,-1.214844 0.31641,-1.105469 -0.10156,-0.367188 0.31641,-1.105469 0.42187,-0.734375 0.10937,-0.105469 0.42187,-0.734375 0.3125,-0.636718 -0.82422,-0.53125 -0.82422,-0.53125 0,0 -0.23047,0.101563 -0.76172,0.632813 -0.52734,0.527343 -1.57812,0.632812 -2,0.949219 -0.41796,0.3125 0,-0.738282 -0.41796,0.3125 -0.42188,1.054687 -0.21094,1.347656 0,2.042968 0.21484,0.695313 0.21484,-0.03906 0.21484,0.695313 z m 0,0"
         fill-opacity="1"
         fill-rule="nonzero"
         id="map-2"
         class="map"
         inkscape:label="map-2"
         style="fill:#fff5ff;fill-opacity:1" />
      <path
         fill="#000000"
         d="m 182.35156,88.617188 c -0.52344,-0.632813 -0.32031,-1.160157 -1.26953,-1.160157 -0.94141,0 -0.94141,0 -0.94141,0 0,0 -1.05078,0.632813 -1.15625,1.261719 -0.10546,0.632812 -0.78125,0.316406 -0.65625,0.949219 0.12891,0.632812 -0.85937,0.105469 0,1.160156 0.86329,1.050781 1.39063,0.839844 1.81641,1.257813 0.41797,0.417968 -0.42187,1.054687 0,1.265624 0.41797,0.210938 -0.63672,0.738282 0.94141,0 1.58593,-0.738281 0.42578,0.3125 1.58593,-0.738281 1.16016,-1.054687 1.05469,-0.109375 1.16016,-1.054687 0.10547,-0.945313 0.73828,-0.734375 0,-1.472656 -0.74609,-0.734376 -0.95312,-0.839844 -1.48047,-1.46875 z m 0,0"
         fill-opacity="1"
         fill-rule="nonzero"
         id="map-1"
         class="map"
         inkscape:label="map-1"
         style="fill:#fff5ff;fill-opacity:1" />
    </g>
    <path
       style="fill:#ffa6db;fill-opacity:1;stroke:#fff5ff;stroke-width:1.18775;stroke-dasharray:none;stroke-opacity:1"
       d="M 40.493875,10 V 50.358942"
       id="separator"
       inkscape:label="path20-0" />
  </g>
  <g
     inkscape:groupmode="layer"
     id="layer3"
     inkscape:label="the-dance">
    <rect
       style="display:inline;fill:#fff5ff;fill-opacity:1;stroke:#fff5ff;stroke-width:0;stroke-linecap:square;stroke-linejoin:miter;stroke-dasharray:none;stroke-opacity:1"
       id="the-dance"
       width="60.794876"
       height="30.336287"
       x="36.594509"
       y="4.5018277"
       clip-path="url(#clipPath36)" />
  </g>
  <g
     inkscape:groupmode="layer"
     id="layer2"
     inkscape:label="thread">
    <path
       style="fill:none;stroke:#cb56e6;stroke-width:2;stroke-linecap:round;stroke-linejoin:round;stroke-opacity:1"
       d="m 48.682872,29.784878 6.915571,-1.643303 5.546148,-0.479295 4.039788,0.273883 2.396485,1.164005"
       id="cursive-7"
       clip-path="url(#clipPath6)" />
    <path
       style="fill:none;stroke:#cb56e6;stroke-width:2;stroke-linecap:round;stroke-linejoin:round;stroke-opacity:1"
       d="m 94.24786,31.400784 -1.319741,-0.455083 -1.228728,0.318558 -0.910167,1.547286 -0.81915,2.047878 -0.09102,0.773641 1.046691,-0.637116 2.27542,-2.00237 3.731686,-5.552024 2.639488,-6.098122 -3.049063,7.736424 -2.457453,7.32685"
       id="cursive-6"
       clip-path="url(#clipPath18)" />
    <path
       style="fill:none;stroke:#cb56e6;stroke-width:2;stroke-linecap:round;stroke-linejoin:round;stroke-opacity:1"
       d="m 84.782117,32.083409 -1.001184,-0.500592 -1.274236,0.728134 -1.001183,1.865844 -0.455083,1.547286 0.364066,0.27305 1.592795,-1.501778 1.865841,-1.729316 0.955678,-0.455086 -0.04551,0.682627 -0.27305,1.592792 0.364066,0.682628 0.81915,0.182033 1.319744,-0.819153 3.140078,-2.639486"
       id="cursive-5"
       clip-path="url(#clipPath15)" />
    <path
       style="fill:none;stroke:#cb56e6;stroke-width:2;stroke-linecap:round;stroke-linejoin:round;stroke-opacity:1"
       d="m 75.589425,34.495353 1.683809,-0.864658 0.819152,-0.81915 -0.227541,-0.682628 H 77.182217 L 75.999,33.130103 75.179848,34.995948 v 1.0922 l 0.728136,0.318558 1.683808,-0.682625 2.229911,-1.410761 2.047878,-1.456267"
       id="cursive-4"
       clip-path="url(#clipPath13)" />
    <path
       style="fill:none;stroke:#cb56e6;stroke-width:2;stroke-linecap:round;stroke-linejoin:round;stroke-opacity:1"
       d="m 70.787201,31.537611 -1.755574,6.019106 1.504778,-2.884156 1.379379,-1.880971 1.12858,-0.376192 0.877787,0.689689"
       id="cursive-3"
       clip-path="url(#clipPath11)" />
    <path
       style="fill:none;stroke:#cb56e6;stroke-width:2;stroke-linecap:round;stroke-linejoin:round;stroke-opacity:1"
       d="m 64.378654,22.238433 -2.820093,5.720757 -2.256073,6.284775 -0.322294,2.336646 0.483444,0.241724 2.820091,-2.739519 2.578369,-1.772627 0.402868,0.322294 -0.483444,2.82009 0.241723,0.725168 1.128035,-0.402871 4.028702,-2.658943"
       id="cursive-2"
       sodipodi:nodetypes="cccccccccccc"
       clip-path="url(#clipPath10)" />
    <path
       style="fill:none;stroke:#cb56e6;stroke-width:2;stroke-linecap:round;stroke-linejoin:round;stroke-opacity:1"
       d="m 59.638231,23.622491 -3.218138,8.969699 -1.095536,5.683091 0.205414,5.40921"
       id="cursive-1"
       clip-path="url(#clipPath5)" />
  </g>
</svg>
